<svg xmlns="http://www.w3.org/2000/svg" width="133.596" height="124.942" viewBox="0 0 133.596 124.942">
  <g id="Groupe_152" data-name="Groupe 152" transform="translate(-755.439 -210.316)">
    <path id="Tracé_179" data-name="Tracé 179" d="M858.668,412.9h17.363V398.02h18.426V383.137h16.1V354.081H899.418v15.591H881.7v14.883H863.274v14.883H845.911v14.528H827.485v4.547l31.183-.1Z" transform="translate(-43.687 -87.176)" fill="#deab00"/>
    <g id="Groupe_123" data-name="Groupe 123" transform="translate(874.614 276.369)">
      <path id="Tracé_180" data-name="Tracé 180" d="M1061.713,385.932l-3.507-7.807,9.277,1.169Zm-1.568-6.373,1.889,4.2,3.107-3.574Z" transform="translate(-1058.206 -378.125)" fill="#1c3e58"/>
    </g>
    <g id="Groupe_124" data-name="Groupe 124" transform="translate(853.797 311.922)">
      <path id="Tracé_181" data-name="Tracé 181" d="M1006.39,480.911l-1.069-.5,2.056-4.384,4.213,1.71.5-9.286,7.213,7.428-.847.823-5.332-5.49-.443,8.243-4.709-1.912Z" transform="translate(-1005.32 -468.45)" fill="#deab00"/>
    </g>
    <g id="Groupe_125" data-name="Groupe 125" transform="translate(760.531 282.067)">
      <path id="Tracé_182" data-name="Tracé 182" d="M771.707,399.265a3.332,3.332,0,1,1,3.332-3.332A3.336,3.336,0,0,1,771.707,399.265Zm0-5.484a2.151,2.151,0,1,0,2.151,2.151A2.154,2.154,0,0,0,771.707,393.782Z" transform="translate(-768.375 -392.601)" fill="#deab00"/>
    </g>
    <g id="Groupe_126" data-name="Groupe 126" transform="translate(802.365 210.316)">
      <path id="Tracé_183" data-name="Tracé 183" d="M877.407,215.819a2.751,2.751,0,1,1,2.751-2.751A2.755,2.755,0,0,1,877.407,215.819Zm0-4.322a1.571,1.571,0,1,0,1.57,1.571A1.572,1.572,0,0,0,877.407,211.5Z" transform="translate(-874.656 -210.316)" fill="#deab00"/>
    </g>
    <g id="Groupe_129" data-name="Groupe 129" transform="translate(809.378 212.477)">
      <g id="Groupe_127" data-name="Groupe 127" transform="translate(0)">
        <path id="Tracé_184" data-name="Tracé 184" d="M919.508,271.194h-1.181V243.205a2.682,2.682,0,0,1,2.679-2.679H927.4a1.5,1.5,0,0,0,1.179-2.423l-16.121-20.543a1.5,1.5,0,0,0-2.357,0L893.977,238.1a1.5,1.5,0,0,0,1.178,2.423h6.392a2.682,2.682,0,0,1,2.679,2.679v24.913h-1.181V243.205a1.5,1.5,0,0,0-1.5-1.5h-6.392a2.679,2.679,0,0,1-2.107-4.333l16.121-20.543a2.678,2.678,0,0,1,4.215,0l16.121,20.543a2.679,2.679,0,0,1-2.107,4.333h-6.392a1.5,1.5,0,0,0-1.5,1.5Z" transform="translate(-892.473 -215.805)" fill="#deab00"/>
      </g>
      <g id="Groupe_128" data-name="Groupe 128" transform="translate(25.854 60.084)">
        <rect id="Rectangle_62" data-name="Rectangle 62" width="1.181" height="3.238" fill="#deab00"/>
      </g>
    </g>
    <g id="Groupe_141" data-name="Groupe 141" transform="translate(776.61 231.333)">
      <rect id="Rectangle_63" data-name="Rectangle 63" width="20.321" height="14.344" transform="matrix(0.908, -0.419, 0.419, 0.908, 4.407, 62.803)" fill="#deab00"/>
      <g id="Groupe_130" data-name="Groupe 130" transform="translate(18.761 7.304)">
        <path id="Tracé_185" data-name="Tracé 185" d="M861.623,294.893q-.218,0-.437-.016a6.224,6.224,0,0,1-4.3-2.316l.92-.74a5.12,5.12,0,0,0,3.466,1.879,4.7,4.7,0,0,0,1.778-.21,1.163,1.163,0,0,0,.764-.855c.048-.205.094-.4.139-.582a14.028,14.028,0,0,0,.462-2.877,24.8,24.8,0,0,0-.512-6.66l1.154-.248a25.965,25.965,0,0,1,.536,6.978,15.194,15.194,0,0,1-.492,3.086c-.044.181-.09.369-.137.571a2.35,2.35,0,0,1-1.559,1.713A5.915,5.915,0,0,1,861.623,294.893Z" transform="translate(-856.889 -282.267)" fill="#1c3e58"/>
      </g>
      <g id="Groupe_131" data-name="Groupe 131" transform="translate(13.146 5.521)">
        <path id="Tracé_186" data-name="Tracé 186" d="M843.949,285.477a3.5,3.5,0,0,1-1.134-3.822,2.525,2.525,0,0,1,4.144-1.052q.065-.156.142-.305c1.314-2.533,4.834-2.562,4.983-2.562a6.663,6.663,0,0,1,4.047,1.449l-.729.929a5.469,5.469,0,0,0-3.311-1.2c-.036,0-2.954.022-3.942,1.926a2.932,2.932,0,0,0-.31,1.078.59.59,0,0,1-1.1.235,1.8,1.8,0,0,0-1.892-1.016,1.552,1.552,0,0,0-.927.935,2.356,2.356,0,0,0,.8,2.51Z" transform="translate(-842.624 -277.736)" fill="#1c3e58"/>
      </g>
      <g id="Groupe_132" data-name="Groupe 132" transform="translate(12.177 0)">
        <path id="Tracé_187" data-name="Tracé 187" d="M843.39,281.315l-1.181-.012.043-4.572a8.643,8.643,0,0,1-1.572-8.44,7.335,7.335,0,0,1,4.749-4.069,10.435,10.435,0,0,1,8.123.67,4.731,4.731,0,0,1,2.149,2.573,5.027,5.027,0,0,1-.828,4.135l-.968-.677a3.84,3.84,0,0,0,.666-3.115,3.581,3.581,0,0,0-1.648-1.916,9.327,9.327,0,0,0-7.136-.545,6.191,6.191,0,0,0-4.016,3.4c-.91,2.2-.309,5.107,1.533,7.416l.129.161v.958Z" transform="translate(-840.162 -263.711)" fill="#1c3e58"/>
      </g>
      <g id="Groupe_133" data-name="Groupe 133" transform="translate(24.416 56.515)">
        <path id="Tracé_188" data-name="Tracé 188" d="M874.54,413.735l-1.141-.3,1.2-4.51-3.348-.462.161-1.17,4.672.645Z" transform="translate(-871.254 -407.288)" fill="#1c3e58"/>
      </g>
      <g id="Groupe_134" data-name="Groupe 134" transform="translate(23.048 47.909)">
        <path id="Tracé_189" data-name="Tracé 189" d="M872.922,417.176a4.735,4.735,0,0,1-4.576-5.954l1.246-4.671,1.141.3-1.246,4.671A3.557,3.557,0,0,0,872,415.875a3.6,3.6,0,0,0,.919.12,3.555,3.555,0,0,0,3.429-2.638l5.524-20.714a3.551,3.551,0,0,0-2.93-4.431l-11.166-1.618.169-1.169,11.165,1.618a4.732,4.732,0,0,1,3.9,5.905l-5.524,20.713A4.738,4.738,0,0,1,872.922,417.176Z" transform="translate(-867.778 -385.425)" fill="#1c3e58"/>
      </g>
      <g id="Groupe_135" data-name="Groupe 135" transform="translate(4.121 73.418)">
        <path id="Tracé_190" data-name="Tracé 190" d="M824.434,471.662a4.733,4.733,0,0,1-4.656-5.606l2.353-12.728,1.161.215-2.353,12.73a3.552,3.552,0,1,0,6.982,1.311l3.253-17.352,1.161.218L829.081,467.8A4.732,4.732,0,0,1,824.434,471.662Z" transform="translate(-819.695 -450.231)" fill="#1c3e58"/>
      </g>
      <g id="Groupe_136" data-name="Groupe 136" transform="translate(2.742 34.289)">
        <path id="Tracé_191" data-name="Tracé 191" d="M817.371,420.459H816.19v-8.876h17.952v-15.19h17.952V381.2h17.952v-15.19H888v-15.19h18.037V352H889.177v15.19H871.226v15.19H853.274v15.19H835.323v15.19H817.371Z" transform="translate(-816.19 -350.824)" fill="#1c3e58"/>
      </g>
      <g id="Groupe_137" data-name="Groupe 137" transform="translate(9.914 18.46)">
        <path id="Tracé_192" data-name="Tracé 192" d="M847.159,344.231l-1.127-.355c.717-2.274,2.537-8.431,2.851-10.054.786-4.065,1.306-6.75.689-10.258a19.968,19.968,0,0,0-3.166-7.736,13.071,13.071,0,0,1-4.414-1.241,16.346,16.346,0,0,1-3.208-2.227,26.4,26.4,0,0,0-3.237,5.355l-1.136-.326c.554-1.935,3.68-6.081,3.813-6.257l.4-.524.479.45a17.177,17.177,0,0,0,3.406,2.465,11.9,11.9,0,0,0,4.277,1.151l.28.021.16.231a21.2,21.2,0,0,1,3.514,8.431c.655,3.722.089,6.643-.693,10.686C849.707,335.784,847.846,342.052,847.159,344.231Z" transform="translate(-834.411 -310.61)" fill="#1c3e58"/>
      </g>
      <g id="Groupe_138" data-name="Groupe 138" transform="translate(6.547 51.311)">
        <path id="Tracé_193" data-name="Tracé 193" d="M829.481,400.447a3.628,3.628,0,0,1-3.624-3.624h1.181a2.446,2.446,0,0,0,2.444,2.443,2.518,2.518,0,0,0,1.813-.773,2.221,2.221,0,0,0,.632-1.643,5.948,5.948,0,0,0-1.228-2.022l.9-.759a6.413,6.413,0,0,1,1.5,2.729,3.389,3.389,0,0,1-.957,2.512A3.705,3.705,0,0,1,829.481,400.447Z" transform="translate(-825.857 -394.068)" fill="#1c3e58"/>
      </g>
      <g id="Groupe_139" data-name="Groupe 139" transform="translate(2.203 24.192)">
        <path id="Tracé_194" data-name="Tracé 194" d="M818.785,355.64a1.508,1.508,0,0,1-1.463-.677,22.7,22.7,0,0,1-1.746-16.063,22.953,22.953,0,0,1,10.8-13.727l.571,1.033a21.742,21.742,0,0,0-10.227,13,21.5,21.5,0,0,0,1.642,15.19c.531.341,3.8-.544,5.623-2.091.435-.369.847-.864.7-1.148a14.28,14.28,0,0,1-1.107-10.1,14.466,14.466,0,0,1,6.8-8.633l.572,1.033a13.253,13.253,0,0,0-6.236,7.907,13.081,13.081,0,0,0,1.016,9.253c.6,1.164-.413,2.534-2.784,3.759A10.663,10.663,0,0,1,818.785,355.64Z" transform="translate(-814.821 -325.172)" fill="#1c3e58"/>
      </g>
      <g id="Groupe_140" data-name="Groupe 140" transform="translate(0 51.121)">
        <path id="Tracé_195" data-name="Tracé 195" d="M816.663,420.033l-7.438-16.118,22.387-10.331L839.05,409.7Zm-5.871-15.541,6.449,13.974,20.243-9.342-6.448-13.974Z" transform="translate(-809.225 -393.584)" fill="#1c3e58"/>
      </g>
    </g>
    <g id="Groupe_144" data-name="Groupe 144" transform="translate(755.439 228.573)">
      <g id="Groupe_142" data-name="Groupe 142" transform="translate(0 0)">
        <path id="Tracé_196" data-name="Tracé 196" d="M770.477,286.8a15.086,15.086,0,1,1,4.922-.832A14.978,14.978,0,0,1,770.477,286.8Zm0-28.913a13.862,13.862,0,1,0,13.115,9.339A13.8,13.8,0,0,0,770.477,257.886Z" transform="translate(-755.439 -256.698)" fill="#deab00"/>
      </g>
      <text id="_" data-name="€" transform="matrix(0.914, -0.407, 0.407, 0.914, 11.603, 24.751)" fill="#1c3e58" font-size="20" font-family="NeoSansPro-Light, Neo Sans Pro" font-weight="300"><tspan x="0" y="0">€</tspan></text>
    </g>
    <g id="Groupe_146" data-name="Groupe 146" transform="translate(768.216 210.698)">
      <g id="Groupe_145" data-name="Groupe 145">
        <path id="Tracé_198" data-name="Tracé 198" d="M804.67,231.055l-.656-.982a9.776,9.776,0,0,0,1.167-.915l.8.871A10.9,10.9,0,0,1,804.67,231.055Zm2.446-2.24-.922-.738a9.689,9.689,0,0,0,.834-1.225l1.024.588A10.889,10.889,0,0,1,807.115,228.814Zm1.651-2.879-1.1-.422a9.568,9.568,0,0,0,.42-1.42l1.155.246A10.692,10.692,0,0,1,808.766,225.935Zm-20.209-.147a10.724,10.724,0,0,1-.45-1.6l1.158-.23a9.552,9.552,0,0,0,.4,1.426Zm20.9-3.1-1.179-.068c.011-.187.016-.374.016-.559,0-.309-.015-.62-.045-.923l1.176-.113c.033.34.05.688.05,1.035Q809.478,222.376,809.46,222.691Zm-21.55-.158q-.01-.223-.009-.447c0-.309.013-.623.04-.931.008-.095.017-.189.028-.283l1.173.131c-.01.084-.018.168-.025.253-.024.275-.035.555-.035.832,0,.134,0,.266.008.4ZM808,219.683a9.568,9.568,0,0,0-.479-1.4l1.085-.467a10.826,10.826,0,0,1,.538,1.573Zm-18.578-.136-1.14-.309a10.692,10.692,0,0,1,.56-1.568l1.078.483A9.432,9.432,0,0,0,789.42,219.546Zm17.409-2.576a9.7,9.7,0,0,0-.882-1.19l.892-.773a10.8,10.8,0,0,1,.99,1.336Zm-16.2-.12-.991-.643a10.791,10.791,0,0,1,1.011-1.322l.88.787A9.629,9.629,0,0,0,790.625,216.851Zm14.268-2.112a9.711,9.711,0,0,0-1.2-.868l.616-1.008a10.974,10.974,0,0,1,1.349.974Zm-12.3-.091-.749-.913a10.94,10.94,0,0,1,1.362-.953l.6,1.017A9.737,9.737,0,0,0,792.6,214.648Zm9.776-1.449a9.593,9.593,0,0,0-1.408-.459l.278-1.148a10.807,10.807,0,0,1,1.582.516Zm-7.233-.054-.437-1.1a10.9,10.9,0,0,1,1.588-.495l.263,1.152A9.6,9.6,0,0,0,795.139,213.145Zm4.361-.643a9.743,9.743,0,0,0-1.482-.013l-.08-1.178a10.967,10.967,0,0,1,1.664.014Z" transform="translate(-787.901 -211.287)" fill="#1c3e58"/>
      </g>
    </g>
    <g id="Groupe_151" data-name="Groupe 151" transform="translate(847.648 211.777)">
      <g id="Groupe_149" data-name="Groupe 149" transform="translate(0 5.523)">
        <path id="Tracé_199" data-name="Tracé 199" d="M1020.138,275.522a3.264,3.264,0,0,0,.982,2.356,3.4,3.4,0,0,0,4.713,0,3.332,3.332,0,1,0-5.695-2.356Z" transform="translate(-1008.157 -254.816)" fill="#deab00"/>
        <g id="Groupe_147" data-name="Groupe 147" transform="translate(2.004 5.367)">
          <path id="Tracé_200" data-name="Tracé 200" d="M1008.105,272.406a15.433,15.433,0,0,1-13.311-7.706l1.023-.59a14.161,14.161,0,1,0,0-14.124l-1.024-.588a15.353,15.353,0,0,1,28.667,7.662,15.375,15.375,0,0,1-15.351,15.346Zm0-6.452a8.927,8.927,0,1,1,6.286-2.6A8.856,8.856,0,0,1,1008.105,265.953Zm0-16.643a7.777,7.777,0,1,0,5.456,2.28A7.633,7.633,0,0,0,1008.105,249.311Z" transform="translate(-994.79 -241.695)" fill="#deab00"/>
        </g>
        <g id="Groupe_148" data-name="Groupe 148">
          <path id="Tracé_201" data-name="Tracé 201" d="M1010.589,268.737l-.316-1.138c.49-.136.979-.293,1.455-.466l.4,1.109C1011.628,268.426,1011.108,268.593,1010.589,268.737Zm3.043-1.11-.492-1.073c.459-.211.918-.443,1.364-.69l.573,1.032C1014.605,267.157,1014.119,267.4,1013.632,267.627Zm2.829-1.576-.654-.983c.421-.28.837-.581,1.238-.9l.729.93C1017.349,265.433,1016.907,265.753,1016.461,266.05Zm2.546-2-.8-.87q.316-.291.623-.6c.157-.157.312-.318.463-.48l.864.806q-.241.259-.493.51Q1019.34,263.746,1019.007,264.052Zm2.211-2.366-.923-.736c.316-.4.621-.81.906-1.231l.978.662C1021.876,260.826,1021.553,261.266,1021.218,261.686Zm1.815-2.683-1.027-.583c.25-.44.486-.9.7-1.358l1.07.5C1023.549,258.051,1023.3,258.536,1023.033,259Zm1.371-2.935-1.106-.414c.177-.474.339-.963.479-1.451l1.135.326C1024.764,255.047,1024.593,255.565,1024.4,256.068Zm.9-3.112-1.157-.237c.1-.5.185-1,.248-1.508l1.171.146C1025.5,251.893,1025.407,252.431,1025.3,252.956Zm.4-3.213-1.179-.055q.021-.459.022-.919c0-.2,0-.406-.01-.609l1.18-.037c.007.216.01.432.01.647Q1025.722,249.259,1025.7,249.743Zm-1.274-3.108c-.055-.5-.13-1.012-.225-1.512l1.16-.218c.1.531.18,1.069.238,1.6Zm-.567-3c-.133-.49-.286-.981-.457-1.457l1.112-.4c.181.505.344,1.025.485,1.546Zm-1.027-2.874c-.208-.464-.437-.924-.68-1.368l1.036-.566c.257.471.5.959.721,1.451Zm-32.261-5.132-.873-.8q.326-.357.673-.7.228-.229.464-.45l.809.861q-.221.208-.437.424Q990.879,235.291,990.572,235.629Zm2.224-2.093-.74-.919c.419-.337.857-.662,1.3-.966l.667.975C993.6,232.911,993.191,233.217,992.8,233.535Zm24.1-.272c-.405-.311-.824-.609-1.247-.884l.644-.99c.448.292.893.607,1.322.937Zm-21.579-1.451-.589-1.024c.468-.268.95-.521,1.436-.751l.506,1.067C996.211,231.321,995.756,231.559,995.315,231.812Zm19.021-.216c-.446-.243-.906-.471-1.369-.676l.481-1.079c.491.218.98.46,1.453.718Zm-16.264-1.09-.419-1.1c.5-.191,1.02-.364,1.537-.514l.331,1.133C999.034,230.162,998.547,230.326,998.072,230.506Zm13.476-.152c-.477-.168-.967-.321-1.458-.451l.3-1.141c.521.139,1.043.3,1.549.479Zm-10.545-.7-.241-1.156c.525-.109,1.063-.2,1.6-.267l.149,1.171C1002.005,229.464,1001.5,229.548,1001,229.651Zm7.6-.085c-.5-.092-1.007-.165-1.513-.218l.123-1.175c.536.057,1.075.134,1.6.231Zm-4.566-.3-.057-1.179c.358-.018.718-.024,1.078-.026q.27,0,.54.008l-.032,1.18c-.181,0-.356-.007-.544-.007Q1004.523,229.241,1004.033,229.265Z" transform="translate(-989.699 -228.06)" fill="#1c3e58"/>
        </g>
      </g>
      <path id="Tracé_202" data-name="Tracé 202" d="M1064.132,225.708l6.146-6.113-.618-5.567-6.146,6.113Z" transform="translate(-1034.459 -214.028)" fill="#deab00"/>
      <path id="Tracé_203" data-name="Tracé 203" d="M1065.085,234.284l6.146-6.113,5.567.619-6.146,6.113Z" transform="translate(-1035.412 -222.604)" fill="#deab00"/>
      <g id="Groupe_150" data-name="Groupe 150" transform="translate(15.237 6.116)">
        <rect id="Rectangle_64" data-name="Rectangle 64" width="27.053" height="1.181" transform="matrix(0.714, -0.701, 0.701, 0.714, 0, 18.952)" fill="#1c3e58"/>
      </g>
    </g>
  </g>
</svg>
