<svg xmlns="http://www.w3.org/2000/svg" width="87.769" height="80.052" viewBox="0 0 87.769 80.052">
  <g id="Groupe_1006" data-name="Groupe 1006" transform="translate(0 0.75)">
    <path id="Tracé_537" data-name="Tracé 537" d="M92.35,470.261V411.586h31.789v58.675" transform="translate(-42.169 -391.708)" fill="none" stroke="#000" stroke-linejoin="round" stroke-width="1.5"/>
    <path id="Tracé_538" data-name="Tracé 538" d="M88.1,470.261V417.853l8.522-6.267v58.675" transform="translate(-46.438 -391.708)" fill="none" stroke="#000" stroke-linejoin="round" stroke-width="1.5"/>
    <path id="Tracé_539" data-name="Tracé 539" d="M83.577,463.37V401.664h31.789v19.878" transform="translate(-50.972 -401.664)" fill="none" stroke="#000" stroke-linejoin="round" stroke-width="1.5"/>
    <path id="Tracé_540" data-name="Tracé 540" d="M79.323,480.217V407.931l8.522-6.267v78.552" transform="translate(-55.241 -401.664)" fill="none" stroke="#000" stroke-linejoin="round" stroke-width="1.5"/>
    <path id="Tracé_541" data-name="Tracé 541" d="M74.51,443.572V421.394h9.642" transform="translate(-60.07 -381.867)" fill="none" stroke="#000" stroke-linejoin="round" stroke-width="1.5"/>
    <path id="Tracé_542" data-name="Tracé 542" d="M70.257,460.419V427.661l8.522-6.267v39.025" transform="translate(-64.338 -381.867)" fill="none" stroke="#000" stroke-linejoin="round" stroke-width="1.5"/>
    <line id="Ligne_25" data-name="Ligne 25" x2="87.769" transform="translate(0 78.552)" fill="none" stroke="#000" stroke-linejoin="round" stroke-width="1.5"/>
    <path id="Tracé_543" data-name="Tracé 543" d="M96.326,421.625v-6.062h6.062" transform="translate(-38.179 -387.718)" fill="none" stroke="#000" stroke-miterlimit="10" stroke-width="1.5"/>
    <path id="Tracé_544" data-name="Tracé 544" d="M87.554,411.7v-6.062h6.063" transform="translate(-46.982 -397.674)" fill="none" stroke="#000" stroke-miterlimit="10" stroke-width="1.5"/>
    <path id="Tracé_545" data-name="Tracé 545" d="M93.519,411.7v-6.062h6.062" transform="translate(-40.997 -397.674)" fill="none" stroke="#000" stroke-miterlimit="10" stroke-width="1.5"/>
    <path id="Tracé_546" data-name="Tracé 546" d="M102.178,421.625v-6.062h6.063" transform="translate(-32.307 -387.718)" fill="none" stroke="#000" stroke-miterlimit="10" stroke-width="1.5"/>
    <path id="Tracé_547" data-name="Tracé 547" d="M96.326,427.515v-6.063h6.062" transform="translate(-38.179 -381.808)" fill="none" stroke="#000" stroke-miterlimit="10" stroke-width="1.5"/>
    <path id="Tracé_548" data-name="Tracé 548" d="M102.178,427.515v-6.063h6.063" transform="translate(-32.307 -381.808)" fill="none" stroke="#000" stroke-miterlimit="10" stroke-width="1.5"/>
    <path id="Tracé_549" data-name="Tracé 549" d="M96.326,433.48v-6.062h6.062" transform="translate(-38.179 -375.823)" fill="none" stroke="#000" stroke-miterlimit="10" stroke-width="1.5"/>
    <path id="Tracé_550" data-name="Tracé 550" d="M102.178,433.48v-6.062h6.063" transform="translate(-32.307 -375.823)" fill="none" stroke="#000" stroke-miterlimit="10" stroke-width="1.5"/>
    <rect id="Rectangle_194" data-name="Rectangle 194" width="15.855" height="13.778" transform="translate(58.147 64.774)" fill="none" stroke="#000" stroke-miterlimit="10" stroke-width="1.5"/>
    <line id="Ligne_26" data-name="Ligne 26" y2="13.778" transform="translate(66.075 64.774)" fill="none" stroke="#000" stroke-miterlimit="10" stroke-width="1.5"/>
  </g>
</svg>
