<svg xmlns="http://www.w3.org/2000/svg" width="89.65" height="78.513" viewBox="0 0 89.65 78.513">
  <g id="Groupe_1002" data-name="Groupe 1002" transform="translate(0 0.75)">
    <g id="Groupe_1001" data-name="Groupe 1001" transform="translate(60.157 36.507)">
      <path id="Tracé_523" data-name="Tracé 523" d="M448.58,199.754c5.053,0,10.1-4.572,12.658-7.288a6.365,6.365,0,0,0,1.713-4.38V170.374c-10.9,2.286-14.37-2.973-14.37-2.973s-3.468,5.259-14.373,2.973v17.712a6.365,6.365,0,0,0,1.713,4.38C438.474,195.183,443.525,199.754,448.58,199.754Z" transform="translate(-434.207 -167.401)" fill="none" stroke="#000" stroke-linejoin="round" stroke-width="1.5"/>
      <path id="Tracé_524" data-name="Tracé 524" d="M437.445,177.746l6.606,5.354,10.16-10.161" transform="translate(-430.958 -161.843)" fill="none" stroke="#000" stroke-miterlimit="10" stroke-width="1.5"/>
    </g>
    <path id="Tracé_525" data-name="Tracé 525" d="M431.823,153.244H412.4l-7.447,17.608h77.228l-7.447-17.608H455.214" transform="translate(-403.402 -145.099)" fill="none" stroke="#000" stroke-linejoin="round" stroke-width="1.5"/>
    <line id="Ligne_18" data-name="Ligne 18" y2="51.26" transform="translate(5.217 25.753)" fill="none" stroke="#000" stroke-miterlimit="10" stroke-width="1.5"/>
    <line id="Ligne_19" data-name="Ligne 19" y2="5.249" transform="translate(74.529 25.753)" fill="none" stroke="#000" stroke-miterlimit="10" stroke-width="1.5"/>
    <line id="Ligne_20" data-name="Ligne 20" y2="4.616" transform="translate(66.562 71.892)" fill="none" stroke="#000" stroke-miterlimit="10" stroke-width="1.5"/>
    <path id="Tracé_526" data-name="Tracé 526" d="M428.663,199.459V175.82h5.232" transform="translate(-379.612 -122.446)" fill="none" stroke="#000" stroke-miterlimit="10" stroke-width="1.5"/>
    <line id="Ligne_21" data-name="Ligne 21" x2="79.669" transform="translate(0 77.013)" fill="none" stroke="#000" stroke-miterlimit="10" stroke-width="1.5"/>
    <path id="Tracé_527" data-name="Tracé 527" d="M417.333,167.6l2.07-10.278,11.7-8.145,11.7,8.145,2.169,10.278Z" transform="translate(-390.982 -149.179)" fill="none" stroke="#000" stroke-linejoin="round" stroke-width="1.5"/>
    <path id="Tracé_528" data-name="Tracé 528" d="M410.76,178.933V168H421.7" transform="translate(-397.577 -130.295)" fill="none" stroke="#000" stroke-miterlimit="10" stroke-width="1.5"/>
    <path id="Tracé_529" data-name="Tracé 529" d="M420.2,178.933V168H431.13" transform="translate(-388.11 -130.295)" fill="none" stroke="#000" stroke-miterlimit="10" stroke-width="1.5"/>
    <path id="Tracé_530" data-name="Tracé 530" d="M410.76,187.389V176.454H421.7" transform="translate(-397.577 -121.809)" fill="none" stroke="#000" stroke-miterlimit="10" stroke-width="1.5"/>
    <path id="Tracé_531" data-name="Tracé 531" d="M420.2,187.389V176.454H431.13" transform="translate(-388.11 -121.809)" fill="none" stroke="#000" stroke-miterlimit="10" stroke-width="1.5"/>
  </g>
</svg>
