<svg xmlns="http://www.w3.org/2000/svg" width="89.65" height="81.823" viewBox="0 0 89.65 81.823">
  <g id="Groupe_1000" data-name="Groupe 1000" transform="translate(0 0.75)">
    <path id="Tracé_510" data-name="Tracé 510" d="M359.444,437.955a11.589,11.589,0,1,1-11.59-11.59A11.589,11.589,0,0,1,359.444,437.955Z" transform="translate(-303.082 -375.993)" fill="none" stroke="#000" stroke-miterlimit="10" stroke-width="1.5"/>
    <ellipse id="Ellipse_11" data-name="Ellipse 11" cx="4.735" cy="4.735" rx="4.735" ry="4.735" transform="translate(40.038 57.227)" fill="none" stroke="#000" stroke-miterlimit="10" stroke-width="1.5"/>
    <path id="Tracé_511" data-name="Tracé 511" d="M360.147,433.782a.887.887,0,1,1-.886-.885A.886.886,0,0,1,360.147,433.782Z" transform="translate(-280.899 -369.438)" fill="none" stroke="#000" stroke-miterlimit="10" stroke-width="1.5"/>
    <path id="Tracé_512" data-name="Tracé 512" d="M372.922,438.046a9.4,9.4,0,1,1-9.4-9.4A9.4,9.4,0,0,1,372.922,438.046Z" transform="translate(-285.161 -373.702)" fill="none" stroke="#000" stroke-miterlimit="10" stroke-width="1.5"/>
    <line id="Ligne_8" data-name="Ligne 8" x1="8.155" y2="9.386" transform="translate(17.843 51.278)" fill="none" stroke="#000" stroke-miterlimit="10" stroke-width="1.5"/>
    <path id="Tracé_513" data-name="Tracé 513" d="M385.48,436.223V428.4a1.888,1.888,0,0,0-1.887-1.887H367.549a1.9,1.9,0,0,1-1.336-.553l-4.347-4.349H340.02a1.888,1.888,0,0,0-1.469.7l-3.294,8.633" transform="translate(-304.094 -380.768)" fill="none" stroke="#000" stroke-miterlimit="10" stroke-width="1.5"/>
    <path id="Tracé_514" data-name="Tracé 514" d="M359.021,430.792v-2.576a33.188,33.188,0,0,0-2.787-13.311,3.271,3.271,0,0,0-3.011-1.9H340.6a2.508,2.508,0,0,0-2.506,2.508v14.729" transform="translate(-301.249 -389.402)" fill="none" stroke="#000" stroke-miterlimit="10" stroke-width="1.5"/>
    <path id="Tracé_515" data-name="Tracé 515" d="M356.977,432.383V421.1a2.805,2.805,0,0,1,.821-1.985l3.364-3.364" transform="translate(-282.3 -386.643)" fill="none" stroke="#000" stroke-miterlimit="10" stroke-width="1.5"/>
    <line id="Ligne_9" data-name="Ligne 9" x1="26.599" transform="translate(0 60.664)" fill="none" stroke="#000" stroke-miterlimit="10" stroke-width="1.5"/>
    <path id="Tracé_516" data-name="Tracé 516" d="M329.983,431.5v7.655l3.3,3.3" transform="translate(-309.387 -370.838)" fill="none" stroke="#000" stroke-miterlimit="10" stroke-width="1.5"/>
    <path id="Tracé_517" data-name="Tracé 517" d="M322.03,431.5v7.655l2.465,3.827" transform="translate(-317.367 -370.838)" fill="none" stroke="#000" stroke-miterlimit="10" stroke-width="1.5"/>
    <path id="Tracé_518" data-name="Tracé 518" d="M325.915,431.5v10.2l4.075,4.528" transform="translate(-313.469 -370.838)" fill="none" stroke="#000" stroke-miterlimit="10" stroke-width="1.5"/>
    <line id="Ligne_10" data-name="Ligne 10" x1="11.943" transform="translate(57.022 64.345)" fill="none" stroke="#000" stroke-miterlimit="10" stroke-width="1.5"/>
    <path id="Tracé_519" data-name="Tracé 519" d="M319.7,443.057h5.465a2.134,2.134,0,0,0,1.466-.581l3.085-2.9,3.1,2.9a2.144,2.144,0,0,0,1.464.579h8.663a1.637,1.637,0,0,0,1.13-.453l2.679-2.57a1.634,1.634,0,0,1,1.823-.3L355,442.748a3.243,3.243,0,0,0,1.386.309h52.965" transform="translate(-319.702 -362.733)" fill="none" stroke="#000" stroke-linejoin="round" stroke-width="1.5"/>
    <line id="Ligne_11" data-name="Ligne 11" y2="17.237" transform="translate(46.283 23.601)" fill="none" stroke="#000" stroke-miterlimit="10" stroke-width="1.5"/>
    <g id="Groupe_999" data-name="Groupe 999" transform="translate(5.69 0)">
      <path id="Tracé_520" data-name="Tracé 520" d="M334.9,409.786a4.008,4.008,0,1,1-4.009-4.009A4.007,4.007,0,0,1,334.9,409.786Z" transform="translate(-318.189 -396.651)" fill="none" stroke="#000" stroke-miterlimit="10" stroke-width="1.5"/>
      <path id="Tracé_521" data-name="Tracé 521" d="M336.99,415.01h8.142a4.337,4.337,0,0,0,0-8.675,4.271,4.271,0,0,0-3.688,2.2,5.545,5.545,0,0,0-9.438-3.131" transform="translate(-313.048 -398.684)" fill="none" stroke="#000" stroke-linejoin="round" stroke-width="1.5"/>
      <path id="Tracé_522" data-name="Tracé 522" d="M346.905,417.113H358.4a6.121,6.121,0,1,0,0-12.243,6.033,6.033,0,0,0-5.207,3.1,7.828,7.828,0,0,0-13.323-4.418" transform="translate(-305.157 -401.222)" fill="none" stroke="#000" stroke-linejoin="round" stroke-width="1.5"/>
      <line id="Ligne_12" data-name="Ligne 12" y1="4.615" transform="translate(12.7 0.434)" fill="none" stroke="#000" stroke-linejoin="round" stroke-width="1.5"/>
      <line id="Ligne_13" data-name="Ligne 13" y1="4.615" transform="translate(12.7 21.218)" fill="none" stroke="#000" stroke-linejoin="round" stroke-width="1.5"/>
      <line id="Ligne_14" data-name="Ligne 14" x1="4.615" transform="translate(0 13.134)" fill="none" stroke="#000" stroke-linejoin="round" stroke-width="1.5"/>
      <line id="Ligne_15" data-name="Ligne 15" x1="3.264" y1="3.264" transform="translate(3.72 4.154)" fill="none" stroke="#000" stroke-linejoin="round" stroke-width="1.5"/>
      <line id="Ligne_16" data-name="Ligne 16" x1="3.263" y1="3.264" transform="translate(18.416 18.85)" fill="none" stroke="#000" stroke-linejoin="round" stroke-width="1.5"/>
      <line id="Ligne_17" data-name="Ligne 17" x1="3.264" y2="3.264" transform="translate(3.72 18.85)" fill="none" stroke="#000" stroke-linejoin="round" stroke-width="1.5"/>
    </g>
  </g>
</svg>
