<svg xmlns="http://www.w3.org/2000/svg" xmlns:xlink="http://www.w3.org/1999/xlink" width="892.537" height="1162.167" viewBox="0 0 892.537 1162.167">
  <defs>
    <linearGradient id="linear-gradient" x1="0.5" y1="2.866" x2="0.5" y2="-4.813" gradientUnits="objectBoundingBox">
      <stop offset="0" stop-color="#dba73e"/>
      <stop offset="0.16" stop-color="#d89d3a"/>
      <stop offset="0.3" stop-color="#a46b28"/>
      <stop offset="0.46" stop-color="#8e5723"/>
      <stop offset="0.49" stop-color="#f4f3b8"/>
      <stop offset="0.56" stop-color="#f7ed9a"/>
      <stop offset="0.69" stop-color="#d5b767"/>
      <stop offset="0.75" stop-color="#a76f29"/>
      <stop offset="0.85" stop-color="#d0ab5b"/>
      <stop offset="1" stop-color="#e0c77d"/>
    </linearGradient>
    <linearGradient id="linear-gradient-10" x1="0.5" y1="-1.866" x2="0.5" y2="5.813" xlink:href="#linear-gradient"/>
    <linearGradient id="linear-gradient-14" x1="0.5" y1="2.866" x2="0.5" y2="-4.813" xlink:href="#linear-gradient"/>
  </defs>
  <g id="Groupe_1068" data-name="Groupe 1068" transform="translate(41.255 -816.163)">
    <g id="Groupe_258" data-name="Groupe 258">
      <path id="Tracé_93" data-name="Tracé 93" d="M274.953-485.932l-7.075,21.323C317.5-461.678,377.893-537.665,399.085-601.7,356.271-589.826,294.6-545.267,274.953-485.932Z" transform="translate(27.906 1895.809) rotate(-22)" fill="url(#linear-gradient)"/>
      <path id="Tracé_94" data-name="Tracé 94" d="M274.953-485.932l-7.075,21.323C317.5-461.678,377.893-537.665,399.085-601.7,356.271-589.826,294.6-545.267,274.953-485.932Z" transform="matrix(-0.559, -0.829, 0.829, -0.559, 1348.85, 1863.943)" fill="url(#linear-gradient)"/>
      <path id="Tracé_96" data-name="Tracé 96" d="M272-534.314,267.878-521.9c28.887,1.706,64.039-42.525,76.375-79.8C319.331-594.79,283.433-568.853,272-534.314Z" transform="matrix(-0.559, -0.829, 0.829, -0.559, 791.354, 1678.459)" fill="url(#linear-gradient)"/>
      <path id="Tracé_97" data-name="Tracé 97" d="M274.5-493.3l-6.625,19.966c46.468,2.744,103.014-68.407,122.858-128.372C350.646-590.582,292.9-548.859,274.5-493.3Z" transform="translate(749.522 2140.791) rotate(-30)" fill="url(#linear-gradient)"/>
      <path id="Tracé_92" data-name="Tracé 92" d="M270.019-566.676l-2.141,6.452c15.015.887,33.286-22.1,39.7-41.48C294.623-598.11,275.963-584.628,270.019-566.676Z" transform="translate(392.932 1648.704)" fill="url(#linear-gradient)"/>
      <path id="Tracé_95" data-name="Tracé 95" d="M269.245-579.338l-1.367,4.12c9.587.566,21.254-14.114,25.348-26.486C284.955-599.409,273.041-590.8,269.245-579.338Z" transform="matrix(-0.559, -0.829, 0.829, -0.559, 853.655, 737.61)" fill="url(#linear-gradient)"/>
      <path id="Tracé_204" data-name="Tracé 204" d="M270.692-555.654l-2.814,8.482c19.74,1.166,43.761-29.059,52.19-54.532C303.038-596.98,278.507-579.255,270.692-555.654Z" transform="translate(174.721 2183.494) rotate(-17)" fill="url(#linear-gradient)"/>
      <path id="Tracé_205" data-name="Tracé 205" d="M269.183-580.358l-1.3,3.932c9.15.54,20.284-13.47,24.192-25.277C284.176-599.514,272.805-591.3,269.183-580.358Z" transform="translate(-83.113 1196.762) rotate(85)" fill="url(#linear-gradient)"/>
      <path id="Tracé_206" data-name="Tracé 206" d="M269.183-580.358l-1.3,3.932c9.15.54,20.284-13.47,24.192-25.277C284.176-599.514,272.805-591.3,269.183-580.358Z" transform="matrix(-0.766, 0.643, -0.643, -0.766, 536.342, 728.829)" fill="url(#linear-gradient)"/>
    </g>
    <g id="Groupe_1020" data-name="Groupe 1020" transform="translate(100.047 1219.115) rotate(14)">
      <path id="Tracé_93-2" data-name="Tracé 93" d="M4.416,13.362,0,.051c30.977-1.829,68.672,45.6,81.9,85.576C55.176,78.214,16.68,50.4,4.416,13.362Z" transform="translate(467.547 342.44) rotate(-158)" fill="url(#linear-gradient-10)"/>
      <path id="Tracé_94-2" data-name="Tracé 94" d="M4.416,13.362,0,.051c30.977-1.829,68.672,45.6,81.9,85.576C55.176,78.214,16.68,50.4,4.416,13.362Z" transform="translate(23.307 677.558) rotate(-56)" fill="url(#linear-gradient-10)"/>
      <path id="Tracé_96-2" data-name="Tracé 96" d="M2.571,7.778,0,.03C18.032-1.035,39.974,26.575,47.674,49.844,32.118,45.528,9.709,29.337,2.571,7.778Z" transform="translate(400.97 581.787) rotate(-56)" fill="url(#linear-gradient-10)"/>
      <path id="Tracé_97-2" data-name="Tracé 97" d="M4.135,12.511,0,.048c29.006-1.713,64.3,42.7,76.69,80.131C51.665,73.237,15.619,47.192,4.135,12.511Z" transform="translate(66.415 487.409) rotate(-150)" fill="url(#linear-gradient-10)"/>
      <path id="Tracé_92-2" data-name="Tracé 92" d="M291.322-579.839l1.336,4.027c-9.372.553-20.778-13.8-24.78-25.892C275.964-599.461,287.612-591.045,291.322-579.839Z" transform="translate(-173.763 745.796)" fill="url(#linear-gradient-14)"/>
      <path id="Tracé_95-2" data-name="Tracé 95" d="M.853,2.581,0,.01C5.985-.344,13.267,8.82,15.823,16.543,10.66,15.11,3.222,9.737.853,2.581Z" transform="translate(389.688 13.118) rotate(-56)" fill="url(#linear-gradient-10)"/>
      <path id="Tracé_204-2" data-name="Tracé 204" d="M1.757,5.315,0,.02C12.322-.707,27.316,18.16,32.578,34.06,21.947,31.111,6.635,20.047,1.757,5.315Z" transform="translate(362.265 478.01) rotate(-163)" fill="url(#linear-gradient-10)"/>
      <path id="Tracé_205-2" data-name="Tracé 205" d="M.814,2.464,0,.009C5.711-.328,12.662,8.418,15.1,15.788,10.173,14.421,3.075,9.293.814,2.464Z" transform="matrix(-0.087, 0.996, -0.996, -0.087, 210.254, 372.793)" fill="url(#linear-gradient-10)"/>
      <path id="Tracé_206-2" data-name="Tracé 206" d="M.814,2.464,0,.009C5.711-.328,12.662,8.418,15.1,15.788,10.173,14.421,3.075,9.293.814,2.464Z" transform="translate(93.405 328.593) rotate(40)" fill="url(#linear-gradient-10)"/>
    </g>
  </g>
</svg>
