<svg xmlns="http://www.w3.org/2000/svg" xmlns:xlink="http://www.w3.org/1999/xlink" width="99.686" height="119.377" viewBox="0 0 99.686 119.377">
  <defs>
    <filter id="Tracé_561" x="0" y="0" width="99.686" height="119.377" filterUnits="userSpaceOnUse">
      <feOffset dy="3" input="SourceAlpha"/>
      <feGaussianBlur stdDeviation="7.5" result="blur"/>
      <feFlood flood-opacity="0.435"/>
      <feComposite operator="in" in2="blur"/>
      <feComposite in="SourceGraphic"/>
    </filter>
    <linearGradient id="linear-gradient" x1="0.5" x2="0.5" y2="1" gradientUnits="objectBoundingBox">
      <stop offset="0" stop-color="#ddc277"/>
      <stop offset="0.212" stop-color="#a9722b"/>
      <stop offset="0.601" stop-color="#f5f0ac"/>
      <stop offset="0.631" stop-color="#8f5723"/>
      <stop offset="1" stop-color="#daa43d"/>
    </linearGradient>
    <filter id="Tracé_562" x="34.162" y="33.327" width="31.376" height="31.258" filterUnits="userSpaceOnUse">
      <feOffset dy="3" input="SourceAlpha"/>
      <feGaussianBlur stdDeviation="1.5" result="blur-2"/>
      <feFlood flood-opacity="0.533"/>
      <feComposite operator="in" in2="blur-2"/>
      <feComposite in="SourceGraphic"/>
    </filter>
  </defs>
  <g id="Groupe_1012" data-name="Groupe 1012" transform="translate(-34.101 19.5)">
    <g transform="matrix(1, 0, 0, 1, 34.1, -19.5)" filter="url(#Tracé_561)">
      <path id="Tracé_561-2" data-name="Tracé 561" d="M35.018,0C19.982,0,7.668,11.769,7.668,26.34c0,9.918,6.619,21.508,13.05,30.9A174.833,174.833,0,0,0,33.561,73.733a1.953,1.953,0,0,0,2.9,0A173.4,173.4,0,0,0,49.319,57.238c6.431-9.391,13.034-20.981,13.034-30.9C62.353,11.769,50.055,0,35.018,0Z" transform="translate(14.83 19.5)" fill="#404040"/>
    </g>
    <g transform="matrix(1, 0, 0, 1, 34.1, -19.5)" filter="url(#Tracé_562)">
      <path id="Tracé_562-2" data-name="Tracé 562" d="M21.045,2.076A11.129,11.129,0,1,0,32.233,13.2,11.187,11.187,0,0,0,21.045,2.076Z" transform="translate(28.81 32.75)" fill="url(#linear-gradient)"/>
    </g>
    <path id="Tracé_567" data-name="Tracé 567" d="M18.577.723a25.959,25.959,0,0,0-10.91,21c0,9.918,6.619,21.508,13.05,30.9A174.832,174.832,0,0,0,33.561,69.116a1.953,1.953,0,0,0,2.9,0s.695-.788,1.667-1.923A178.678,178.678,0,0,1,24.986,50.31c-6.61-9.652-13.412-21.567-13.412-31.76a26.353,26.353,0,0,1,7-17.826Z" transform="translate(48.933 4.617)"/>
  </g>
</svg>
