<svg xmlns="http://www.w3.org/2000/svg" width="21.24" height="21.239" viewBox="0 0 21.24 21.239">
  <g id="Groupe_1080" data-name="Groupe 1080" transform="translate(-1426.988 -6001.215)">
    <path id="Tracé_83" data-name="Tracé 83" d="M1762.608,841.137h-8.151a6.544,6.544,0,0,0-6.544,6.545v8.151a6.544,6.544,0,0,0,6.544,6.543h8.151a6.543,6.543,0,0,0,6.544-6.543v-8.151A6.544,6.544,0,0,0,1762.608,841.137Zm4.505,13.913a5.288,5.288,0,0,1-5.287,5.288h-6.587a5.287,5.287,0,0,1-5.288-5.288v-6.587a5.289,5.289,0,0,1,5.288-5.288h6.587a5.289,5.289,0,0,1,5.287,5.288Z" transform="translate(-320.924 5160.078)" fill="#fff"/>
    <path id="Tracé_84" data-name="Tracé 84" d="M1786.674,872.761a5.594,5.594,0,1,0,5.594,5.594A5.594,5.594,0,0,0,1786.674,872.761Zm0,8.96a3.366,3.366,0,1,1,3.365-3.366A3.366,3.366,0,0,1,1786.674,881.721Z" transform="translate(-348.781 5133.517)" fill="#fff"/>
    <path id="Tracé_85" data-name="Tracé 85" d="M1842.516,864.746a1.423,1.423,0,1,1-1.423-1.424A1.424,1.424,0,0,1,1842.516,864.746Z" transform="translate(-397.993 5141.444)" fill="#fff"/>
  </g>
</svg>
