<svg xmlns="http://www.w3.org/2000/svg" width="21.277" height="21.24" viewBox="0 0 21.277 21.24">
  <g id="Groupe_1081" data-name="Groupe 1081" transform="translate(-1478.517 -6000.215)">
    <path id="Tracé_87" data-name="Tracé 87" d="M1990.563,850.943h4.41V865.13h-4.41Zm2.206-7.052a2.556,2.556,0,1,1-2.556,2.559,2.558,2.558,0,0,1,2.556-2.559" transform="translate(-511.695 5156.324)" fill="#fff"/>
    <path id="Tracé_88" data-name="Tracé 88" d="M2035.269,884.367h4.23v1.941h.06a4.63,4.63,0,0,1,4.172-2.291c4.465,0,5.29,2.937,5.29,6.756v7.781h-4.408v-6.9c0-1.645-.028-3.763-2.292-3.763-2.293,0-2.644,1.794-2.644,3.645v7.017h-4.408Z" transform="translate(-549.226 5122.9)" fill="#fff"/>
  </g>
</svg>
