<svg xmlns="http://www.w3.org/2000/svg" width="142" height="124.942" viewBox="0 0 142 124.942">
  <g id="Groupe_122" data-name="Groupe 122" transform="translate(-184.769 -218.164)">
    <g id="Groupe_72" data-name="Groupe 72" transform="translate(203.701 322.186)">
      <path id="Tracé_145" data-name="Tracé 145" d="M231.338,483.847l.461-9.811,7.426,5.5Zm1.572-7.472-.252,5.359,4.307-2.357Z" transform="translate(-231.338 -474.036)" fill="#deab00"/>
    </g>
    <g id="Groupe_73" data-name="Groupe 73" transform="translate(299.591 320.983)">
      <path id="Tracé_146" data-name="Tracé 146" d="M480.131,482.014l-.294-8.1-6.187,6.153-2.335-4.824-3.635,1.527-.472-1.124,4.7-1.975L474,477.992l6.952-6.914.4,10.892Z" transform="translate(-467.208 -471.078)" fill="#deab00"/>
    </g>
    <g id="Groupe_74" data-name="Groupe 74" transform="translate(196.702 233.37)">
      <path id="Tracé_147" data-name="Tracé 147" d="M217.626,262.576a3.5,3.5,0,1,1,3.5-3.5A3.508,3.508,0,0,1,217.626,262.576Zm0-5.788a2.284,2.284,0,1,0,2.284,2.284A2.287,2.287,0,0,0,217.626,256.788Z" transform="translate(-214.122 -255.568)" fill="#deab00"/>
    </g>
    <g id="Groupe_75" data-name="Groupe 75" transform="translate(295.202 222.661)">
      <path id="Tracé_148" data-name="Tracé 148" d="M459.55,235.5a3.138,3.138,0,1,1,3.138-3.138A3.142,3.142,0,0,1,459.55,235.5Zm0-5.057a1.918,1.918,0,1,0,1.918,1.918A1.921,1.921,0,0,0,459.55,230.446Z" transform="translate(-456.412 -229.226)" fill="#deab00"/>
    </g>
    <path id="Tracé_149" data-name="Tracé 149" d="M380.218,451.525a3.159,3.159,0,0,0-.477-.6l-2.455-2.444a4.048,4.048,0,0,0-.845-.636l-11.681-11.681a4.158,4.158,0,0,1,0,5.876,4.113,4.113,0,0,1-2.4,1.173,2.6,2.6,0,0,0-2.29,2.29,4.108,4.108,0,0,1-3.587,3.587,2.6,2.6,0,0,0-2.29,2.29,4.133,4.133,0,0,1-3.581,3.584,2.547,2.547,0,0,0-2.279,2.238c-.007.056-.013.112-.022.168l.6,4.708.143.131.393-.393a4.182,4.182,0,0,1,5.233-.537c.012.012.036.024.048.036a3.9,3.9,0,0,1,.6.5,4.347,4.347,0,0,1,.477.572,4.154,4.154,0,0,1,.583,3.47s.013,0,.013-.013l.918-1.394.388-.244c.018.019.034.04.053.059l2.444,2.443a3.711,3.711,0,0,0,.6.477,4.129,4.129,0,0,0,6.484-3.421,4.068,4.068,0,0,0-.669-2.237,4.122,4.122,0,0,0,6.384-3.478,4.069,4.069,0,0,0-.727-2.336,3.053,3.053,0,0,0-.341-.446l.251-.158,1.692,1.693a3.736,3.736,0,0,0,.6.476,4.129,4.129,0,0,0,6.485-3.421A4.068,4.068,0,0,0,380.218,451.525Z" transform="translate(-97.055 -129.377)" fill="#deab00"/>
    <path id="Tracé_150" data-name="Tracé 150" d="M400.037,416.512a12.217,12.217,0,0,1-14.546,2.18L402.778,435.6c7.988-6.129,7.193-12.089,11.825-15.409l-8.761-9.489Z" transform="translate(-119.121 -114.266)" fill="#deab00"/>
    <g id="Groupe_80" data-name="Groupe 80" transform="translate(286.182 241.987)">
      <g id="Groupe_76" data-name="Groupe 76" transform="translate(9.994 11.245)">
        <rect id="Rectangle_50" data-name="Rectangle 50" width="20.6" height="1.22" fill="#1c3e58"/>
      </g>
      <g id="Groupe_77" data-name="Groupe 77" transform="translate(19.257 16.853)">
        <rect id="Rectangle_51" data-name="Rectangle 51" width="11.396" height="1.22" fill="#1c3e58"/>
      </g>
      <g id="Groupe_78" data-name="Groupe 78" transform="translate(9.934 16.853)">
        <rect id="Rectangle_52" data-name="Rectangle 52" width="5.18" height="1.22" fill="#1c3e58"/>
      </g>
      <g id="Groupe_79" data-name="Groupe 79" transform="translate(0 0)">
        <path id="Tracé_151" data-name="Tracé 151" d="M447.743,313.818l.484-1.011a7.7,7.7,0,0,0,.793-3.8c-.142-2.422-.685-3.48-.994-3.577a18.573,18.573,0,0,1-2.917-1.21c-6.715-2.52-10.885-7.46-10.885-12.9,0-8.027,9.1-14.557,20.293-14.557s20.293,6.53,20.293,14.557c0,6.244-5.532,11.777-13.771,13.778-.207.078-.441.164-.684.246a14.795,14.795,0,0,1-11.5,8.331Zm6.775-35.836c-10.517,0-19.074,5.983-19.074,13.337,0,4.925,3.88,9.435,10.127,11.768l.068.031a17.352,17.352,0,0,0,2.754,1.146c1.323.418,1.733,2.769,1.844,4.669a8.637,8.637,0,0,1-.478,3.352,13.568,13.568,0,0,0,9.6-7.693l.113-.246.258-.081c.31-.1.613-.209.914-.322l.072-.022c7.7-1.859,12.875-6.923,12.875-12.6C473.592,283.966,465.035,277.983,454.518,277.983Z" transform="translate(-434.225 -276.763)" fill="#deab00"/>
      </g>
    </g>
    <g id="Groupe_96" data-name="Groupe 96" transform="translate(198.081 276.146)">
      <g id="Groupe_81" data-name="Groupe 81" transform="translate(85.371 29.476)">
        <path id="Tracé_152" data-name="Tracé 152" d="M428.282,450.477l-.772-.944a26.992,26.992,0,0,0,7.664-10.093c1.214-2.443,2.263-4.553,4.487-6.146l.711.991c-1.977,1.417-2.917,3.306-4.105,5.7A28.406,28.406,0,0,1,428.282,450.477Z" transform="translate(-427.51 -433.295)" fill="#1c3e58"/>
      </g>
      <g id="Groupe_82" data-name="Groupe 82" transform="translate(33.496 45.248)">
        <path id="Tracé_153" data-name="Tracé 153" d="M304.771,486.038a4.866,4.866,0,0,1-3.441-8.3l4.226-4.225a4.867,4.867,0,0,1,6.882,6.883l-4.225,4.225A4.832,4.832,0,0,1,304.771,486.038ZM309,473.306a3.635,3.635,0,0,0-2.578,1.066l-4.226,4.226a3.647,3.647,0,0,0,5.158,5.157l4.225-4.225A3.645,3.645,0,0,0,309,473.306Z" transform="translate(-299.909 -472.09)" fill="#1c3e58"/>
      </g>
      <g id="Groupe_83" data-name="Groupe 83" transform="translate(27.56 42.778)">
        <path id="Tracé_154" data-name="Tracé 154" d="M290.171,476.415a4.864,4.864,0,0,1-3.441-8.305l.672-.672a4.867,4.867,0,1,1,6.882,6.882l-.672.672A4.853,4.853,0,0,1,290.171,476.415Zm.672-9.182a3.636,3.636,0,0,0-2.579,1.066l-.672.672a3.647,3.647,0,0,0,5.158,5.157l.672-.672a3.645,3.645,0,0,0-2.579-6.224Z" transform="translate(-285.307 -466.014)" fill="#1c3e58"/>
      </g>
      <g id="Groupe_84" data-name="Groupe 84" transform="translate(49.809 54.732)">
        <path id="Tracé_155" data-name="Tracé 155" d="M344.9,507.646a4.842,4.842,0,0,1-4.009-7.6,4.254,4.254,0,0,1,.546-.682l2.518-2.518a4.895,4.895,0,0,1,6.129-.629l.058.041.022.016a4.605,4.605,0,0,1,.677.572,4.956,4.956,0,0,1,.555.665,4.835,4.835,0,0,1-.556,6.207l-2.5,2.516a3.831,3.831,0,0,1-.725.579A4.746,4.746,0,0,1,344.9,507.646Zm2.5-11.008a3.632,3.632,0,0,0-2.587,1.068l-2.5,2.5a3.221,3.221,0,0,0-.4.5,3.623,3.623,0,0,0,2.986,5.719,3.567,3.567,0,0,0,2.047-.636,2.767,2.767,0,0,0,.528-.419l2.506-2.519a3.662,3.662,0,0,0,.418-4.643,3.833,3.833,0,0,0-.419-.5,3.388,3.388,0,0,0-.518-.437l-.065-.047A3.661,3.661,0,0,0,347.407,496.638Z" transform="translate(-340.034 -495.418)" fill="#1c3e58"/>
      </g>
      <g id="Groupe_85" data-name="Groupe 85" transform="translate(16.241 28.219)">
        <path id="Tracé_156" data-name="Tracé 156" d="M269,447.427l-.407-.347a33.986,33.986,0,0,1-2.622-2.361,28.5,28.5,0,0,1-5.281-7.572c-.391-.77-.742-1.507-1.082-2.221a29.353,29.353,0,0,0-1.97-3.711l-.052-.094a1.236,1.236,0,0,0-.125-.186l.975-.733a2.307,2.307,0,0,1,.239.369,30.642,30.642,0,0,1,2.034,3.831c.337.707.685,1.438,1.069,2.194a27.37,27.37,0,0,0,5.055,7.26,32.635,32.635,0,0,0,2.553,2.3l.407.348Z" transform="translate(-257.465 -430.201)" fill="#1c3e58"/>
      </g>
      <g id="Groupe_86" data-name="Groupe 86" transform="translate(33.133 6.826)">
        <path id="Tracé_157" data-name="Tracé 157" d="M322.119,381.286A13.9,13.9,0,0,0,310,379.421c-.265.079-.513.153-.761.216-4.169,1.21-7.385,1.58-9.537,1.095a3.372,3.372,0,0,1-.529-.13l-.02-.007a.753.753,0,0,1-.133-.051l.518-1.035-.245.49.183-.58a.9.9,0,0,1,.1.033,2.112,2.112,0,0,0,.332.079l.042.008c1.921.439,5.022.067,8.968-1.079.252-.063.482-.133.712-.2a15.14,15.14,0,0,1,13.206,2.04Z" transform="translate(-299.015 -377.579)" fill="#1c3e58"/>
      </g>
      <g id="Groupe_87" data-name="Groupe 87" transform="translate(66.507 41.149)">
        <path id="Tracé_158" data-name="Tracé 158" d="M388.773,478.173a4.832,4.832,0,0,1-3.441-1.42l-4.225-4.225.862-.862,4.225,4.225a3.647,3.647,0,1,0,5.158-5.157l-7.862-7.862.863-.862,7.862,7.862a4.862,4.862,0,0,1-3.441,8.3Z" transform="translate(-381.107 -462.008)" fill="#1c3e58"/>
      </g>
      <g id="Groupe_88" data-name="Groupe 88" transform="translate(68.888 41.151)">
        <path id="Tracé_159" data-name="Tracé 159" d="M400.279,474.255a4.851,4.851,0,0,1-3.441-1.423l-9.874-9.96.866-.858,9.872,9.958a3.647,3.647,0,0,0,5.155-5.16l-.672-.672.862-.862.672.672a4.865,4.865,0,0,1-3.44,8.306Z" transform="translate(-386.964 -462.013)" fill="#1c3e58"/>
      </g>
      <g id="Groupe_89" data-name="Groupe 89" transform="translate(59.903 46.997)">
        <path id="Tracé_160" data-name="Tracé 160" d="M372.982,492.6a4.851,4.851,0,0,1-3.441-1.423l-4.677-4.677.862-.862,4.677,4.677a3.647,3.647,0,0,0,5.157-5.158l-7.9-7.9.862-.863,7.9,7.9a4.865,4.865,0,0,1-3.441,8.306Z" transform="translate(-364.864 -476.393)" fill="#1c3e58"/>
      </g>
      <g id="Groupe_90" data-name="Groupe 90" transform="translate(42.104 6.824)">
        <path id="Tracé_161" data-name="Tracé 161" d="M363.083,416.029l-22.737-22.737a2.412,2.412,0,0,0-3.41-.052c-1.909,1.827-4.639,4.43-6.305,6.018l-1.453,1.386a4.449,4.449,0,0,1-6.289-.142l-.572-.6a3.629,3.629,0,0,1-.366-.452,4.438,4.438,0,0,1,.492-5.833l12.281-11.743a17.12,17.12,0,0,1,1.913-1.583,15.131,15.131,0,0,1,13.187-2.042c4.687,1.419,8.205,1.822,10.175,1.166l.386,1.157c-2.793.932-7.476-.114-10.914-1.155a13.9,13.9,0,0,0-12.123,1.865,15.989,15.989,0,0,0-1.781,1.474L323.288,394.5a3.215,3.215,0,0,0-.35,4.239l.028.039a2.426,2.426,0,0,0,.24.294l.564.588a3.2,3.2,0,0,0,2.262,1,3.276,3.276,0,0,0,2.3-.892l1.456-1.389c1.665-1.588,4.395-4.191,6.3-6.016a3.664,3.664,0,0,1,5.119.073l22.734,22.734Z" transform="translate(-321.082 -377.575)" fill="#1c3e58"/>
      </g>
      <g id="Groupe_91" data-name="Groupe 91" transform="translate(39.645 50.017)">
        <path id="Tracé_162" data-name="Tracé 162" d="M319.9,498.889a4.862,4.862,0,0,1-3.441-8.3l5.342-5.342a4.867,4.867,0,0,1,6.882,6.882l-5.342,5.343A4.834,4.834,0,0,1,319.9,498.889Zm5.342-13.849a3.635,3.635,0,0,0-2.579,1.066l-5.342,5.342a3.647,3.647,0,0,0,5.158,5.158l5.342-5.342a3.645,3.645,0,0,0-2.579-6.224Z" transform="translate(-315.034 -483.82)" fill="#1c3e58"/>
      </g>
      <g id="Groupe_92" data-name="Groupe 92" transform="translate(78.888 2.691)">
        <path id="Tracé_163" data-name="Tracé 163" d="M433.519,396.338l-21.956-24.182,4.961-4.747.843.881-4.1,3.926,20.306,22.365,4.038-3.954.854.871Z" transform="translate(-411.563 -367.409)" fill="#1c3e58"/>
      </g>
      <g id="Groupe_93" data-name="Groupe 93" transform="translate(80.793)">
        <path id="Tracé_164" data-name="Tracé 164" d="M443.339,391.713,416.25,361.6l.907-.815,26.255,29.181,6.073-5.717.836.888Z" transform="translate(-416.25 -360.789)" fill="#1c3e58"/>
      </g>
      <g id="Groupe_94" data-name="Groupe 94" transform="translate(8.902 2.691)">
        <path id="Tracé_165" data-name="Tracé 165" d="M244.354,396.338l-4.944-4.84.854-.871,4.038,3.954,20.306-22.365-4.1-3.926.843-.881,4.961,4.747Z" transform="translate(-239.411 -367.409)" fill="#1c3e58"/>
      </g>
      <g id="Groupe_95" data-name="Groupe 95">
        <path id="Tracé_166" data-name="Tracé 166" d="M224.321,391.713l-6.807-6.411.836-.888,5.9,5.555L250.5,360.789l.907.815Z" transform="translate(-217.514 -360.789)" fill="#1c3e58"/>
      </g>
    </g>
    <g id="Groupe_113" data-name="Groupe 113" transform="translate(221.101 218.164)">
      <g id="Groupe_97" data-name="Groupe 97" transform="translate(0)">
        <path id="Tracé_167" data-name="Tracé 167" d="M294.692,242.327l-7.851-4.128-7.851,4.128,1.5-8.742-6.351-6.192,8.777-1.275,3.926-7.954,3.926,7.954,8.778,1.275-6.352,6.192ZM276.76,228.245l5.041,4.914-1.19,6.938,6.231-3.276,6.231,3.276-1.19-6.938,5.041-4.914-6.966-1.012-3.116-6.313-3.116,6.313Z" transform="translate(-274.139 -218.164)" fill="#deab00"/>
      </g>
      <g id="Groupe_103" data-name="Groupe 103" transform="translate(41.49 9.342)">
        <g id="Groupe_98" data-name="Groupe 98" transform="translate(0.558 6.351)">
          <path id="Tracé_168" data-name="Tracé 168" d="M378.6,285.392a1.035,1.035,0,0,1-.419-.089,1.019,1.019,0,0,1-.61-1.007l.22-3.405a12.072,12.072,0,0,1,1.22-5.4l9.081-18.727,6.089,2.817-9.148,18.876a9.351,9.351,0,0,1-2.527,3.415c-.289.277-.611.585-.978.958-.793.807-1.612,1.645-2.2,2.246A1.016,1.016,0,0,1,378.6,285.392Zm1.518-9.385a10.888,10.888,0,0,0-1.11,4.961l-.186,2.886c.538-.552,1.2-1.224,1.836-1.875.377-.383.708-.7,1-.985a8.2,8.2,0,0,0,2.267-3.053l8.613-17.771-3.875-1.794Z" transform="translate(-377.57 -256.767)" fill="#deab00"/>
        </g>
        <g id="Groupe_99" data-name="Groupe 99" transform="translate(0 33.998)">
          <rect id="Rectangle_53" data-name="Rectangle 53" width="2.161" height="1.22" transform="translate(0 1.933) rotate(-63.435)" fill="#deab00"/>
        </g>
        <g id="Groupe_100" data-name="Groupe 100" transform="translate(1.521 27.308)">
          <path id="Tracé_169" data-name="Tracé 169" d="M384.006,311.394a3.731,3.731,0,0,0-3.828-1.787l-.24-1.2a4.931,4.931,0,0,1,5.126,2.375Z" transform="translate(-379.938 -308.316)" fill="#deab00"/>
        </g>
        <g id="Groupe_101" data-name="Groupe 101" transform="translate(10.589 2.8)">
          <path id="Tracé_170" data-name="Tracé 170" d="M408.347,255.41l-6.105-2.825,2.076-4.554,6.106,2.824Zm-4.493-3.423,3.892,1.8,1.065-2.335-3.892-1.8Z" transform="translate(-402.242 -248.031)" fill="#deab00"/>
        </g>
        <g id="Groupe_102" data-name="Groupe 102" transform="translate(13.362)">
          <path id="Tracé_171" data-name="Tracé 171" d="M413.471,246.516l-1.11-.506,1.105-2.424a.3.3,0,0,0-.146-.4l-1.71-.791a.288.288,0,0,0-.223-.009.3.3,0,0,0-.167.157l-1.047,2.3-1.11-.506,1.047-2.3a1.514,1.514,0,0,1,2.012-.749l1.71.791a1.527,1.527,0,0,1,.744,2.017Z" transform="translate(-409.063 -241.144)" fill="#deab00"/>
        </g>
      </g>
      <g id="Groupe_104" data-name="Groupe 104" transform="translate(13.739 22.537)">
        <rect id="Rectangle_54" data-name="Rectangle 54" width="1.22" height="29.451" fill="#1c3e58"/>
      </g>
      <g id="Groupe_105" data-name="Groupe 105" transform="translate(53.781 31.48)">
        <rect id="Rectangle_55" data-name="Rectangle 55" width="1.22" height="20.508" fill="#1c3e58"/>
      </g>
      <g id="Groupe_106" data-name="Groupe 106" transform="translate(19.681 5.32)">
        <path id="Tracé_172" data-name="Tracé 172" d="M357.871,235.3h-1.22v-2.828h-34.1v-1.22h35.319Z" transform="translate(-322.552 -231.251)" fill="#1c3e58"/>
      </g>
      <g id="Groupe_107" data-name="Groupe 107" transform="translate(24.623 15.241)">
        <rect id="Rectangle_56" data-name="Rectangle 56" width="21.922" height="1.22" fill="#1c3e58"/>
      </g>
      <g id="Groupe_108" data-name="Groupe 108" transform="translate(35.074 21.773)">
        <rect id="Rectangle_57" data-name="Rectangle 57" width="11.471" height="1.22" fill="#1c3e58"/>
      </g>
      <g id="Groupe_109" data-name="Groupe 109" transform="translate(24.623 21.773)">
        <rect id="Rectangle_58" data-name="Rectangle 58" width="7.588" height="1.22" fill="#1c3e58"/>
      </g>
      <g id="Groupe_110" data-name="Groupe 110" transform="translate(20.955 28.304)">
        <rect id="Rectangle_59" data-name="Rectangle 59" width="18.504" height="1.22" fill="#1c3e58"/>
      </g>
      <g id="Groupe_111" data-name="Groupe 111" transform="translate(20.955 34.836)">
        <rect id="Rectangle_60" data-name="Rectangle 60" width="18.987" height="1.22" fill="#1c3e58"/>
      </g>
      <g id="Groupe_112" data-name="Groupe 112" transform="translate(21.807 44.457)">
        <path id="Tracé_173" data-name="Tracé 173" d="M345.646,330.774a2.821,2.821,0,0,1-2.246-1.224c-.455-.518-.74-.81-1.33-.81s-.875.293-1.329.81a2.671,2.671,0,0,1-4.491,0c-.454-.518-.74-.81-1.329-.81s-.873.293-1.327.81a2.668,2.668,0,0,1-4.487,0c-.455-.518-.74-.81-1.328-.81v-1.22a2.819,2.819,0,0,1,2.244,1.225c.454.517.74.81,1.327.81s.873-.293,1.327-.809a2.668,2.668,0,0,1,4.489,0c.454.517.74.81,1.328.81s.875-.293,1.33-.81a2.671,2.671,0,0,1,4.492,0c.455.517.74.81,1.329.81Z" transform="translate(-327.78 -327.52)" fill="#deab00"/>
      </g>
    </g>
    <g id="Groupe_121" data-name="Groupe 121" transform="translate(184.769 244.702)">
      <g id="Groupe_120" data-name="Groupe 120" transform="translate(0 0)">
        <g id="Groupe_114" data-name="Groupe 114" transform="translate(5.326 18.665)">
          <path id="Tracé_174" data-name="Tracé 174" d="M205.311,344.464h-1.22v-13.89h-5v13.778h-1.22v-15h7.442Z" transform="translate(-197.87 -329.354)" fill="#deab00"/>
        </g>
        <g id="Groupe_115" data-name="Groupe 115" transform="translate(16.214 14.193)">
          <path id="Tracé_175" data-name="Tracé 175" d="M232.094,337.937h-1.22V319.575h-5v18.216h-1.22V318.355h7.442Z" transform="translate(-224.652 -318.355)" fill="#deab00"/>
        </g>
        <g id="Groupe_116" data-name="Groupe 116" transform="translate(26.713 7.582)">
          <path id="Tracé_176" data-name="Tracé 176" d="M257.92,328.286H256.7V303.313h-5v24.774h-1.22V302.094h7.442Z" transform="translate(-250.478 -302.094)" fill="#deab00"/>
        </g>
        <g id="Groupe_117" data-name="Groupe 117" transform="translate(24.934)">
          <path id="Tracé_177" data-name="Tracé 177" d="M250.6,287.94h-1.22v-3.279H246.1v-1.22h4.5Z" transform="translate(-246.102 -283.442)" fill="#1c3e58"/>
        </g>
        <g id="Groupe_118" data-name="Groupe 118" transform="translate(0.298 33.567)">
          <rect id="Rectangle_61" data-name="Rectangle 61" width="36.563" height="1.22" fill="#1c3e58"/>
        </g>
        <g id="Groupe_119" data-name="Groupe 119" transform="translate(0 0.522)">
          <path id="Tracé_178" data-name="Tracé 178" d="M184.852,300.886l-.083-1.216a37.869,37.869,0,0,0,27.6-14.944l.972.736A39.085,39.085,0,0,1,184.852,300.886Z" transform="translate(-184.769 -284.726)" fill="#1c3e58"/>
        </g>
      </g>
    </g>
  </g>
</svg>
