<svg xmlns="http://www.w3.org/2000/svg" width="133.071" height="124.942" viewBox="0 0 133.071 124.942">
  <g id="Groupe_71" data-name="Groupe 71" transform="translate(-190.612 -211.113)">
    <path id="Tracé_103" data-name="Tracé 103" d="M342.116,454.773c0-13.611-5.461-18.115-10.035-18.509.377,4.869-4.756,8.733-6.346,8.733-1.5,0-6.407-3.473-6.407-7.883a5.956,5.956,0,0,1,.062-.85c-8.52,1.52-12.16,9.064-11.053,18.509a25.873,25.873,0,0,0,17.426,6.15C332.542,460.923,337.25,458.919,342.116,454.773Z" transform="translate(-71.219 -136.432)" fill="#deab00"/>
    <g id="Groupe_11" data-name="Groupe 11" transform="translate(253.428 211.113)">
      <path id="Tracé_104" data-name="Tracé 104" d="M350.027,220.533l.442-9.42,7.129,5.276Zm1.519-7.151-.24,5.1,4.1-2.244Z" transform="translate(-350.027 -211.113)" fill="#deab00"/>
    </g>
    <g id="Groupe_12" data-name="Groupe 12" transform="translate(266.244 257.463)">
      <path id="Tracé_105" data-name="Tracé 105" d="M394.92,339.228l-.281-7.742-5.919,5.887-2.236-4.622-3.473,1.46-.458-1.09,4.507-1.894,2,4.138,6.66-6.624.38,10.444Z" transform="translate(-382.552 -328.741)" fill="#deab00"/>
    </g>
    <g id="Groupe_13" data-name="Groupe 13" transform="translate(226.945 284.852)">
      <path id="Tracé_106" data-name="Tracé 106" d="M286.181,404.973a3.362,3.362,0,1,1,3.362-3.362A3.366,3.366,0,0,1,286.181,404.973Zm0-5.541a2.18,2.18,0,1,0,2.18,2.179A2.182,2.182,0,0,0,286.181,399.431Z" transform="translate(-282.819 -398.249)" fill="#deab00"/>
    </g>
    <g id="Groupe_61" data-name="Groupe 61" transform="translate(270.813 211.582)">
      <g id="Groupe_49" data-name="Groupe 49" transform="translate(15.196 37.306)">
        <rect id="Rectangle_39" data-name="Rectangle 39" width="10.351" height="1.182" fill="#deab00"/>
      </g>
      <g id="Groupe_50" data-name="Groupe 50" transform="translate(13.814 18.329)">
        <path id="Tracé_136" data-name="Tracé 136" d="M435.132,264.745h-2.964a2.964,2.964,0,1,1,2.964-2.964ZM432.168,260a1.782,1.782,0,0,0,0,3.564h1.782v-1.782A1.784,1.784,0,0,0,432.168,260Z" transform="translate(-429.204 -258.817)" fill="#deab00"/>
      </g>
      <g id="Groupe_51" data-name="Groupe 51" transform="translate(21.407 18.329)">
        <path id="Tracé_137" data-name="Tracé 137" d="M451.437,264.745h-2.964v-2.964a2.964,2.964,0,1,1,2.964,2.964Zm-1.782-1.182h1.782a1.782,1.782,0,1,0-1.782-1.782Z" transform="translate(-448.473 -258.817)" fill="#deab00"/>
      </g>
      <g id="Groupe_52" data-name="Groupe 52" transform="translate(21.407 23.666)">
        <rect id="Rectangle_40" data-name="Rectangle 40" width="1.182" height="10.23" fill="#deab00"/>
      </g>
      <g id="Groupe_53" data-name="Groupe 53" transform="translate(18.502 23.272)">
        <rect id="Rectangle_41" data-name="Rectangle 41" width="1.182" height="10.987" fill="#deab00"/>
      </g>
      <g id="Groupe_54" data-name="Groupe 54" transform="translate(17.121 41.956)">
        <path id="Tracé_138" data-name="Tracé 138" d="M440.829,322.013a3.238,3.238,0,0,1-3.233-3.234h1.182a2.051,2.051,0,1,0,4.1,0h1.182A3.237,3.237,0,0,1,440.829,322.013Z" transform="translate(-437.596 -318.779)" fill="#deab00"/>
      </g>
      <g id="Groupe_55" data-name="Groupe 55" transform="translate(14.559 33.434)">
        <path id="Tracé_139" data-name="Tracé 139" d="M439.526,306.012h-4.969a3.468,3.468,0,0,1-3.464-3.464v-5.4h1.182v5.4a2.284,2.284,0,0,0,2.282,2.282h4.969a2.284,2.284,0,0,0,2.281-2.282v-5.242h1.182v5.242A3.468,3.468,0,0,1,439.526,306.012Z" transform="translate(-431.093 -297.151)" fill="#deab00"/>
      </g>
      <g id="Groupe_56" data-name="Groupe 56" transform="translate(6.94 8.183)">
        <path id="Tracé_140" data-name="Tracé 140" d="M425.242,260.039a13.485,13.485,0,1,1,13.485-13.484A13.5,13.5,0,0,1,425.242,260.039Zm0-25.788a12.3,12.3,0,1,0,12.3,12.3A12.317,12.317,0,0,0,425.242,234.251Z" transform="translate(-411.758 -233.069)" fill="#deab00"/>
      </g>
      <g id="Groupe_57" data-name="Groupe 57" transform="translate(26.05)">
        <rect id="Rectangle_42" data-name="Rectangle 42" width="3.882" height="1.182" transform="translate(0 3.635) rotate(-69.452)" fill="#deab00"/>
      </g>
      <g id="Groupe_58" data-name="Groupe 58" transform="translate(11.094 0.517)">
        <rect id="Rectangle_43" data-name="Rectangle 43" width="1.182" height="3.883" transform="translate(0 0.489) rotate(-24.449)" fill="#deab00"/>
      </g>
      <g id="Groupe_59" data-name="Groupe 59" transform="translate(0 12.15)">
        <rect id="Rectangle_44" data-name="Rectangle 44" width="1.182" height="3.882" transform="translate(0 1.107) rotate(-69.447)" fill="#deab00"/>
      </g>
      <g id="Groupe_60" data-name="Groupe 60" transform="translate(35.862 10.827)">
        <rect id="Rectangle_45" data-name="Rectangle 45" width="3.882" height="1.182" transform="matrix(0.91, -0.414, 0.414, 0.91, 0, 1.608)" fill="#deab00"/>
      </g>
    </g>
    <g id="Groupe_68" data-name="Groupe 68" transform="translate(196.184 218.588)">
      <g id="Groupe_62" data-name="Groupe 62" transform="translate(0 0)">
        <path id="Tracé_141" data-name="Tracé 141" d="M212.488,268.231v-6.449h-4.308a3.431,3.431,0,0,1-3.428-3.428V233.509a3.431,3.431,0,0,1,3.428-3.427h36.791a3.431,3.431,0,0,1,3.427,3.427v24.845a3.431,3.431,0,0,1-3.427,3.428h-25.4Zm-4.307-36.967a2.248,2.248,0,0,0-2.246,2.245v24.845a2.248,2.248,0,0,0,2.246,2.246h5.49v4.955l5.441-4.955h25.862a2.248,2.248,0,0,0,2.245-2.246V233.509a2.248,2.248,0,0,0-2.245-2.245Z" transform="translate(-204.753 -230.082)" fill="#deab00"/>
      </g>
      <g id="Groupe_63" data-name="Groupe 63" transform="translate(14.674 6.602)">
        <path id="Tracé_142" data-name="Tracé 142" d="M271.742,284.6l-7.094-6.975H241.994v-1.182h23.138l5.428,5.336v-5.336h5.49a2.248,2.248,0,0,0,2.246-2.246V250.264a2.248,2.248,0,0,0-2.246-2.246h-2.836v-1.182h2.836a3.432,3.432,0,0,1,3.428,3.428V274.2a3.431,3.431,0,0,1-3.428,3.428h-4.308Z" transform="translate(-241.994 -246.836)" fill="#deab00"/>
      </g>
      <g id="Groupe_64" data-name="Groupe 64" transform="translate(6.863 8.71)">
        <rect id="Rectangle_46" data-name="Rectangle 46" width="28.727" height="1.182" fill="#1c3e58"/>
      </g>
      <g id="Groupe_65" data-name="Groupe 65" transform="translate(6.863 15.381)">
        <rect id="Rectangle_47" data-name="Rectangle 47" width="14.364" height="1.182" fill="#1c3e58"/>
      </g>
      <g id="Groupe_66" data-name="Groupe 66" transform="translate(26.208 15.381)">
        <rect id="Rectangle_48" data-name="Rectangle 48" width="9.191" height="1.182" fill="#1c3e58"/>
      </g>
      <g id="Groupe_67" data-name="Groupe 67" transform="translate(6.863 22.052)">
        <rect id="Rectangle_49" data-name="Rectangle 49" width="23.066" height="1.182" fill="#1c3e58"/>
      </g>
    </g>
    <g id="Groupe_69" data-name="Groupe 69" transform="translate(305.464 239.058)">
      <path id="Tracé_143" data-name="Tracé 143" d="M487.359,344.436l-.8-.872c.38-.348.758-.708,1.124-1.071l.833.84C488.14,343.707,487.75,344.079,487.359,344.436Zm2.271-2.251-.865-.806c.348-.374.7-.762,1.035-1.157l.9.77C490.347,341.4,489.988,341.8,489.63,342.185Zm2.085-2.427-.926-.733c.319-.4.636-.82.939-1.236l.955.7C492.37,338.914,492.044,339.343,491.715,339.759Zm1.884-2.585-.983-.657c.289-.432.571-.872.837-1.307l1.008.617C494.187,336.275,493.9,336.728,493.6,337.173Zm1.672-2.728-1.032-.576c.251-.449.5-.91.73-1.37l1.054.534C495.782,333.507,495.529,333.982,495.271,334.445Zm1.447-2.855-1.075-.491c.215-.471.422-.95.616-1.425l1.095.448C497.153,330.611,496.939,331.1,496.718,331.59Zm1.212-2.962-1.112-.4c.177-.487.344-.982.5-1.47l1.127.357C498.284,327.616,498.111,328.126,497.929,328.628Zm.969-3.051-1.141-.312c.137-.5.265-1.009.379-1.506l1.152.265C499.17,324.537,499.039,325.059,498.9,325.577Zm.718-3.122-1.162-.217c.1-.514.182-1.03.256-1.533l1.17.172C499.8,321.395,499.715,321.926,499.616,322.455Zm.464-3.168-1.176-.123c.054-.517.1-1.038.132-1.547l1.18.078C500.182,318.219,500.136,318.755,500.08,319.287Zm.209-3.191-1.181-.031q.012-.505.013-1.013c0-.18,0-.361,0-.541l1.182-.015q0,.277,0,.555Q500.3,315.576,500.289,316.1Zm-1.225-3.135c-.027-.514-.065-1.035-.113-1.549l1.177-.109c.049.529.088,1.065.117,1.595Zm-.289-3.091c-.067-.5-.146-1.019-.236-1.533l1.164-.2c.093.53.175,1.062.244,1.582Zm-.535-3.054c-.109-.5-.229-1.008-.359-1.507l1.144-.3c.134.514.258,1.037.37,1.554Zm-.779-3c-.151-.495-.312-.991-.48-1.474l1.117-.389c.173.5.34,1.009.495,1.519Zm-1.019-2.928c-.187-.476-.388-.958-.6-1.431l1.081-.477c.216.488.422.984.616,1.475Zm-1.252-2.836c-.227-.461-.466-.925-.711-1.378l1.04-.563c.253.467.5.945.733,1.421Zm-1.477-2.728c-.265-.444-.541-.888-.82-1.317l.991-.644c.287.443.571.9.844,1.357Zm-1.692-2.6c-.294-.415-.6-.835-.922-1.248l.936-.722c.328.426.648.858.951,1.287Zm-1.895-2.458c-.33-.394-.673-.788-1.02-1.17l.876-.794c.357.393.71.8,1.051,1.2Zm-2.085-2.3c-.366-.372-.74-.737-1.11-1.086l.809-.861c.382.359.766.734,1.144,1.117Zm-2.263-2.125c-.388-.337-.789-.671-1.193-.993l.738-.924c.416.333.829.677,1.229,1.023Zm-2.425-1.938c-.415-.306-.842-.606-1.269-.895l.662-.98c.439.3.879.607,1.307.922Z" transform="translate(-482.084 -282.032)" fill="#1c3e58"/>
    </g>
    <g id="Groupe_70" data-name="Groupe 70" transform="translate(255.654 232.389)">
      <path id="Tracé_144" data-name="Tracé 144" d="M356.493,275.244l-.818-.853c.381-.366.778-.73,1.181-1.083l.779.89C357.245,274.539,356.861,274.891,356.493,275.244Zm2.331-2.04-.737-.924c.417-.334.846-.66,1.274-.972l.7.957C359.642,272.566,359.227,272.881,358.824,273.2Zm2.5-1.821-.651-.987c.445-.294.9-.581,1.357-.852l.606,1.015C362.2,270.821,361.759,271.1,361.329,271.382Zm2.66-1.586-.559-1.042c.47-.252.951-.5,1.429-.725l.511,1.066C364.907,269.316,364.443,269.552,363.988,269.8Zm2.793-1.338-.462-1.088c.487-.206.988-.405,1.49-.592l.411,1.108C367.735,268.066,367.252,268.258,366.781,268.458Zm2.9-1.077-.36-1.126c.507-.162,1.024-.315,1.537-.453l.308,1.141C370.673,267.076,370.173,267.223,369.684,267.38Zm2.989-.807-.255-1.155c.519-.115,1.048-.219,1.571-.311l.2,1.164C373.686,266.361,373.175,266.462,372.672,266.573Z" transform="translate(-355.675 -265.108)" fill="#1c3e58"/>
    </g>
    <g id="Groupe_48" data-name="Groupe 48" transform="translate(190.612 261.4)">
      <g id="Groupe_14" data-name="Groupe 14" transform="translate(0 73.473)">
        <rect id="Rectangle_34" data-name="Rectangle 34" width="123.205" height="1.182" fill="#1c3e58"/>
      </g>
      <g id="Groupe_15" data-name="Groupe 15" transform="translate(3.868 31.463)">
        <path id="Tracé_107" data-name="Tracé 107" d="M200.974,461.249a78.711,78.711,0,0,1,.159-19.788c1.066-7.9,3.343-16.841,5.666-22.257l.269-.625.582.353a25.548,25.548,0,0,0,12.431,3.7l.347.011.159.309c1.974,3.842,4,10.219,5.718,15.951a101.147,101.147,0,0,1,2.487,12.224l-1.168.186a100.263,100.263,0,0,0-2.452-12.07c-1.659-5.528-3.6-11.656-5.483-15.443a26.733,26.733,0,0,1-12.064-3.509,96.147,96.147,0,0,0-5.323,21.329,77.533,77.533,0,0,0-.156,19.49Z" transform="translate(-200.427 -418.578)" fill="#1c3e58"/>
      </g>
      <g id="Groupe_16" data-name="Groupe 16" transform="translate(21.861 47.421)">
        <path id="Tracé_108" data-name="Tracé 108" d="M262.243,479.359h-1.182v-1.777H251.6c-3.449,0-5.51-3.986-5.51-7.838V459.076h1.182v10.668c0,2.684,1.376,6.656,4.328,6.656h10.643Z" transform="translate(-246.09 -459.076)" fill="#1c3e58"/>
      </g>
      <g id="Groupe_17" data-name="Groupe 17" transform="translate(11.365 49.958)">
        <path id="Tracé_109" data-name="Tracé 109" d="M232.573,490.212a13.134,13.134,0,0,1-13.12-13.12V465.515h1.182v11.577a11.951,11.951,0,0,0,11.937,11.937Z" transform="translate(-219.453 -465.515)" fill="#1c3e58"/>
      </g>
      <g id="Groupe_18" data-name="Groupe 18" transform="translate(36.855 67.055)">
        <path id="Tracé_110" data-name="Tracé 110" d="M289.823,516.5h-5.68v-7.6h5.68Zm-4.5-1.182h3.316v-5.235h-3.316Z" transform="translate(-284.143 -508.905)" fill="#1c3e58"/>
      </g>
      <g id="Groupe_19" data-name="Groupe 19" transform="translate(41.83 64.723)">
        <path id="Tracé_111" data-name="Tracé 111" d="M309.871,512.9l-.062-1.181a1.4,1.4,0,0,0,1.357-1.361,1.46,1.46,0,0,0-1.148-1.394l-5.31-.061a1.6,1.6,0,0,1-1.142-.9,1.52,1.52,0,0,1,.073-1.4l.043-.064,1.27-1.65.041-.061c.225-.333.225-.452.214-.488s-.063-.091-.245-.166c-.134-.039-.584.008-2.032.77a15.612,15.612,0,0,1-6.132,1.515l-.027-1.182a14.6,14.6,0,0,0,5.588-1.368c1.345-.708,2.369-1.113,3.057-.828a1.468,1.468,0,0,1,.924.918,1.812,1.812,0,0,1-.366,1.49l-.067.1-1.259,1.634a.344.344,0,0,0,0,.3.4.4,0,0,0,.254.218l5.3.061a2.649,2.649,0,0,1,2.147,2.564A2.578,2.578,0,0,1,309.871,512.9Z" transform="translate(-296.769 -502.986)" fill="#1c3e58"/>
      </g>
      <g id="Groupe_20" data-name="Groupe 20" transform="translate(90.635 31.905)">
        <path id="Tracé_112" data-name="Tracé 112" d="M448.451,461.929l-1.174-.139a77.532,77.532,0,0,0-.156-19.49,91.6,91.6,0,0,0-5.322-20.887,26.745,26.745,0,0,1-12.065,3.509,100.739,100.739,0,0,0-5.482,15,82.539,82.539,0,0,0-2.457,10.775l-1.168-.185a83.631,83.631,0,0,1,2.492-10.93,98.527,98.527,0,0,1,5.719-15.508l.159-.309.347-.011a25.551,25.551,0,0,0,12.432-3.7l.581-.353.269.625a92.058,92.058,0,0,1,5.666,21.815A78.709,78.709,0,0,1,448.451,461.929Z" transform="translate(-420.627 -419.7)" fill="#1c3e58"/>
      </g>
      <g id="Groupe_21" data-name="Groupe 21" transform="translate(84.831 47.421)">
        <path id="Tracé_113" data-name="Tracé 113" d="M407.078,479.331H405.9v-3.372h9.71c2.98,0,5.292-3.34,5.292-6.214V459.076h1.182v10.668c0,3.491-2.769,7.4-6.474,7.4h-8.527Z" transform="translate(-405.896 -459.076)" fill="#1c3e58"/>
      </g>
      <g id="Groupe_22" data-name="Groupe 22" transform="translate(98.39 49.958)">
        <path id="Tracé_114" data-name="Tracé 114" d="M440.307,490.212V489.03a11.951,11.951,0,0,0,11.937-11.937V465.515h1.182v11.577A13.134,13.134,0,0,1,440.307,490.212Z" transform="translate(-440.307 -465.515)" fill="#1c3e58"/>
      </g>
      <g id="Groupe_23" data-name="Groupe 23" transform="translate(80.339 66.911)">
        <path id="Tracé_115" data-name="Tracé 115" d="M400.177,516.283H394.5v-7.744h5.68Zm-4.5-1.182H399v-5.379h-3.316Z" transform="translate(-394.497 -508.539)" fill="#1c3e58"/>
      </g>
      <g id="Groupe_24" data-name="Groupe 24" transform="translate(75.306 65.345)">
        <path id="Tracé_116" data-name="Tracé 116" d="M387.184,507.284a6.13,6.13,0,0,1-3.273-.74,10.979,10.979,0,0,0-2.187-.837l.31-1.141a12.136,12.136,0,0,1,2.4.917,5.049,5.049,0,0,0,2.754.62Z" transform="translate(-381.724 -504.566)" fill="#1c3e58"/>
      </g>
      <g id="Groupe_25" data-name="Groupe 25" transform="translate(68.819 64.026)">
        <path id="Tracé_117" data-name="Tracé 117" d="M374.173,511.837c-2.057,0-5.383-1.37-6.671-2.034-1.876-.966-2.679-2.686-2.006-4.289a9.949,9.949,0,0,1,1.915-3.377,3.4,3.4,0,0,1,3.644-.637l-.476,1.082a2.284,2.284,0,0,0-2.283.339,8.653,8.653,0,0,0-1.673,2.95l-.028.077c-.537,1.242.4,2.263,1.448,2.8a17.665,17.665,0,0,0,6.13,1.9Z" transform="translate(-365.261 -501.218)" fill="#1c3e58"/>
      </g>
      <g id="Groupe_26" data-name="Groupe 26" transform="translate(67.459 71.074)">
        <rect id="Rectangle_35" data-name="Rectangle 35" width="3.287" height="1.182" transform="matrix(0.59, -0.807, 0.807, 0.59, 0, 2.653)" fill="#1c3e58"/>
      </g>
      <g id="Groupe_27" data-name="Groupe 27" transform="translate(72.637 58.029)">
        <rect id="Rectangle_36" data-name="Rectangle 36" width="10.214" height="1.182" transform="matrix(0.548, -0.836, 0.836, 0.548, 0, 8.543)" fill="#1c3e58"/>
      </g>
      <g id="Groupe_28" data-name="Groupe 28" transform="translate(54.718)">
        <path id="Tracé_118" data-name="Tracé 118" d="M344.145,346.085l-1.182,0a6.152,6.152,0,0,0-12.3,0l-1.182,0a7.334,7.334,0,0,1,14.669,0Z" transform="translate(-329.476 -338.732)" fill="#1c3e58"/>
      </g>
      <g id="Groupe_29" data-name="Groupe 29" transform="translate(49.877 4.734)">
        <path id="Tracé_119" data-name="Tracé 119" d="M340.34,369.825l-1.068-.506a11.928,11.928,0,0,0-.835-12.292,11.565,11.565,0,0,0-8.987-5.1h-.175a11.465,11.465,0,0,0-10.9,11.615l-1.182.011a12.659,12.659,0,0,1,2.12-7.185,12.816,12.816,0,0,1,9.961-5.623h.183a12.816,12.816,0,0,1,9.965,5.623A13.219,13.219,0,0,1,340.34,369.825Z" transform="translate(-317.191 -350.747)" fill="#1c3e58"/>
      </g>
      <g id="Groupe_30" data-name="Groupe 30" transform="translate(50.326 50.26)">
        <rect id="Rectangle_37" data-name="Rectangle 37" width="1.182" height="8.506" fill="#1c3e58"/>
      </g>
      <g id="Groupe_31" data-name="Groupe 31" transform="translate(72.597 50.26)">
        <rect id="Rectangle_38" data-name="Rectangle 38" width="1.182" height="6.949" fill="#1c3e58"/>
      </g>
      <g id="Groupe_32" data-name="Groupe 32" transform="translate(17.755 13.646)">
        <path id="Tracé_120" data-name="Tracé 120" d="M241.912,390.194q-.287,0-.575-.022a8.35,8.35,0,0,1-5.667-3.057l.921-.741a7.137,7.137,0,0,0,4.835,2.62,6.528,6.528,0,0,0,2.482-.294,1.781,1.781,0,0,0,1.174-1.307c.064-.276.127-.534.187-.782a19.141,19.141,0,0,0,.631-3.932,33.736,33.736,0,0,0-.7-9.066l1.156-.249a34.93,34.93,0,0,1,.721,9.384,20.379,20.379,0,0,1-.662,4.141c-.059.245-.121.5-.184.772a2.968,2.968,0,0,1-1.97,2.166A7.8,7.8,0,0,1,241.912,390.194Z" transform="translate(-235.67 -373.364)" fill="#1c3e58"/>
      </g>
      <g id="Groupe_33" data-name="Groupe 33" transform="translate(10.259 12.694)">
        <path id="Tracé_121" data-name="Tracé 121" d="M221.621,380.847a5.027,5.027,0,0,1-3.22-1.135c-1.336-1.14-2.288-3.271-1.42-4.976a3.061,3.061,0,0,1,1.971-1.588,3.548,3.548,0,0,1,3.447,1.7l.06-.265a3,3,0,0,1,3.549-2.264,11.293,11.293,0,0,0,2.29.251h.081a11.544,11.544,0,0,0,5.859-1.621l.6,1.017a12.727,12.727,0,0,1-6.46,1.785h-.09a12.464,12.464,0,0,1-2.53-.278,1.816,1.816,0,0,0-2.148,1.368l-.418,1.855a.591.591,0,0,1-1.136.059c-.6-1.774-1.929-2.639-2.871-2.448a1.884,1.884,0,0,0-1.151.965c-.571,1.123.128,2.682,1.134,3.54a3.841,3.841,0,0,0,2.457.852Z" transform="translate(-216.648 -370.948)" fill="#1c3e58"/>
      </g>
      <g id="Groupe_34" data-name="Groupe 34" transform="translate(8.954 4.513)">
        <path id="Tracé_122" data-name="Tracé 122" d="M214.1,362.931a9.97,9.97,0,0,1-.146-7.251,8.556,8.556,0,0,1,2.594-3.653,9.065,9.065,0,0,1,6.212-1.833,8.565,8.565,0,0,1,3.714,1.041,8.975,8.975,0,0,0,3.278,1.02,10.78,10.78,0,0,0,4.374-.473l.523-.164.2.508a6.4,6.4,0,0,1,0,4.777,6.665,6.665,0,0,1-4.844,3.76l-.2-1.165a5.544,5.544,0,0,0,3.955-3.052,5.109,5.109,0,0,0,.167-3.375,11.875,11.875,0,0,1-4.3.36,10.212,10.212,0,0,1-3.666-1.129,7.378,7.378,0,0,0-3.25-.925,7.88,7.88,0,0,0-5.426,1.573,7.306,7.306,0,0,0-2.232,3.159,8.773,8.773,0,0,0,.138,6.373Z" transform="translate(-213.336 -350.185)" fill="#1c3e58"/>
      </g>
      <g id="Groupe_35" data-name="Groupe 35" transform="translate(10.327 21.151)">
        <path id="Tracé_123" data-name="Tracé 123" d="M217.849,404.024l-1.03-.58c1.933-3.43,1.651-6.779,1.445-9.224-.058-.686-.108-1.279-.108-1.812h1.182c0,.484.048,1.054.1,1.713C219.661,396.72,219.961,400.278,217.849,404.024Z" transform="translate(-216.819 -392.408)" fill="#1c3e58"/>
      </g>
      <g id="Groupe_36" data-name="Groupe 36" transform="translate(21.17 29.673)">
        <path id="Tracé_124" data-name="Tracé 124" d="M245.274,420.635c-1.069-1.442-.958-4.584-.906-6.094.007-.216.014-.389.014-.505h1.182c0,.126-.007.313-.015.547-.041,1.159-.149,4.238.674,5.349Z" transform="translate(-244.337 -414.036)" fill="#1c3e58"/>
      </g>
      <g id="Groupe_37" data-name="Groupe 37" transform="translate(93.217 14.53)">
        <path id="Tracé_125" data-name="Tracé 125" d="M432.408,391.553a7.8,7.8,0,0,1-2.354-.367,2.969,2.969,0,0,1-1.969-2.166c-.063-.273-.125-.528-.185-.774a20.353,20.353,0,0,1-.662-4.139,28.359,28.359,0,0,1,.721-8.5l1.156.249a27.324,27.324,0,0,0-.7,8.182,19.124,19.124,0,0,0,.631,3.93c.06.249.123.507.187.784a1.781,1.781,0,0,0,1.174,1.307,6.528,6.528,0,0,0,2.483.294,7.139,7.139,0,0,0,4.835-2.62l.921.741a8.352,8.352,0,0,1-5.667,3.057C432.791,391.546,432.6,391.553,432.408,391.553Z" transform="translate(-427.179 -375.607)" fill="#1c3e58"/>
      </g>
      <g id="Groupe_38" data-name="Groupe 38" transform="translate(109.339 21.151)">
        <path id="Tracé_126" data-name="Tracé 126" d="M469.841,404.024c-2.112-3.747-1.811-7.305-1.593-9.9.056-.659.1-1.229.1-1.713h1.182c0,.534-.05,1.126-.108,1.812-.206,2.445-.488,5.794,1.445,9.224Z" transform="translate(-468.094 -392.408)" fill="#1c3e58"/>
      </g>
      <g id="Groupe_39" data-name="Groupe 39" transform="translate(99.334 29.673)">
        <path id="Tracé_127" data-name="Tracé 127" d="M443.652,421.122l-.95-.7c.843-1.139.751-4.725.721-5.9-.005-.207-.009-.371-.009-.48H444.6c0,.1,0,.257.009.45C444.67,417.043,444.608,419.831,443.652,421.122Z" transform="translate(-442.702 -414.036)" fill="#1c3e58"/>
      </g>
      <g id="Groupe_40" data-name="Groupe 40" transform="translate(52.451 9.009)">
        <path id="Tracé_128" data-name="Tracé 128" d="M324.545,371.949l-.822-.85a24.9,24.9,0,0,0,3.312-4.321,40.687,40.687,0,0,0,2.393-4.816.591.591,0,0,1,1.015-.134,30.8,30.8,0,0,0,5.52,5.527,21.489,21.489,0,0,0,5.826,2.825l-.351,1.129a22.692,22.692,0,0,1-6.145-2.98,28.9,28.9,0,0,1-5.166-5.006,36.337,36.337,0,0,1-2.089,4.079A25.522,25.522,0,0,1,324.545,371.949Z" transform="translate(-323.723 -361.596)" fill="#1c3e58"/>
      </g>
      <g id="Groupe_41" data-name="Groupe 41" transform="translate(55.427 31.633)">
        <path id="Tracé_129" data-name="Tracé 129" d="M331.7,424.785l-.42-1.105a3.679,3.679,0,0,0,2.289-3.206V419.01h1.182v1.465A4.866,4.866,0,0,1,331.7,424.785Z" transform="translate(-331.276 -419.01)" fill="#1c3e58"/>
      </g>
      <g id="Groupe_42" data-name="Groupe 42" transform="translate(65.784 31.633)">
        <path id="Tracé_130" data-name="Tracé 130" d="M360.414,424.8a4.459,4.459,0,0,1-2.856-4.328V419.01h1.182v1.465a3.3,3.3,0,0,0,2.08,3.219Z" transform="translate(-357.558 -419.01)" fill="#1c3e58"/>
      </g>
      <g id="Groupe_43" data-name="Groupe 43" transform="translate(50.694 18.618)">
        <path id="Tracé_131" data-name="Tracé 131" d="M321.945,391.989l-.57-.259a2.7,2.7,0,0,1-1.646-1.81l-.4-1.45a2,2,0,0,1,1.039-2.311,1.52,1.52,0,0,1,2.021.5l-1.032.577c-.085-.153-.485,0-.489,0a.808.808,0,0,0-.4.929l.4,1.451a1.512,1.512,0,0,0,.935,1.019l.04.017.589.268Z" transform="translate(-319.264 -385.981)" fill="#1c3e58"/>
      </g>
      <g id="Groupe_44" data-name="Groupe 44" transform="translate(53.095 18.285)">
        <path id="Tracé_132" data-name="Tracé 132" d="M334.557,400.722a5.406,5.406,0,0,1-3.68-1.441l-2.007-1.858a13.217,13.217,0,0,1-3.512-8.293l.009-3.993,1.182,0-.01,3.961a12.017,12.017,0,0,0,3.182,7.5l1.959,1.811a4.237,4.237,0,0,0,5.8-.045l1.884-1.8a12.054,12.054,0,0,0,3.044-7.354l-.1-2.12,1.181-.056.1,2.18,0,.029a13.239,13.239,0,0,1-3.361,8.128l-.032.033-1.9,1.813A5.394,5.394,0,0,1,334.557,400.722Z" transform="translate(-325.358 -385.137)" fill="#1c3e58"/>
      </g>
      <g id="Groupe_45" data-name="Groupe 45" transform="translate(43.441 35.779)">
        <path id="Tracé_133" data-name="Tracé 133" d="M302.04,455.546h-1.182V444.677a15.464,15.464,0,0,1,.634-4.545,15.045,15.045,0,0,1,11.686-10.452l.812-.148-.122.817a5.127,5.127,0,0,0-.057.755c0,4.061,4.785,7.216,6,7.216a7.4,7.4,0,0,0,3.685-2.43,7.689,7.689,0,0,0,2.252-5.581l1.178-.095a8.661,8.661,0,0,1-2.561,6.477c-1.479,1.6-3.437,2.811-4.554,2.811-1.967,0-7.181-3.815-7.181-8.4,0-.033,0-.067,0-.1a13.879,13.879,0,0,0-10.008,9.477,14.275,14.275,0,0,0-.582,4.2Z" transform="translate(-300.858 -429.532)" fill="#1c3e58"/>
      </g>
      <g id="Groupe_46" data-name="Groupe 46" transform="translate(68.171 35.927)">
        <path id="Tracé_134" data-name="Tracé 134" d="M376.15,454.131h-1.182V444.9a14.285,14.285,0,0,0-.582-4.2,13.868,13.868,0,0,0-10.768-9.637l.212-1.163a15.044,15.044,0,0,1,11.686,10.452,15.467,15.467,0,0,1,.635,4.545Z" transform="translate(-363.618 -429.908)" fill="#1c3e58"/>
      </g>
      <g id="Groupe_47" data-name="Groupe 47" transform="translate(92.817 4.117)">
        <path id="Tracé_135" data-name="Tracé 135" d="M440.456,367.732l0-1.182a3.73,3.73,0,0,0,2.384-.827c.955-.814,1.648-2.358,1.1-3.431a1.823,1.823,0,0,0-1.111-.933c-.909-.182-2.2.655-2.78,2.376a.6.6,0,0,1-.591.4.59.59,0,0,1-.545-.46l-.409-1.807c-.055-.245-.091-.533-.132-.866-.228-1.846-.533-3.252-2.3-3.2a4.4,4.4,0,0,0-2.061,1.029,6.831,6.831,0,0,1-2.8,1.387,9.816,9.816,0,0,1-4.67-.145.591.591,0,0,1-.379-.581c.005-.1.62-10.31,10.753-10.31a11.886,11.886,0,0,1,6.594,2.117,11.211,11.211,0,0,1,3.747,12.222l-1.134-.336a9.924,9.924,0,0,0-3.346-10.958,10.591,10.591,0,0,0-5.861-1.862c-7.91,0-9.3,6.811-9.528,8.712a10.611,10.611,0,0,0,3.643-.027,5.866,5.866,0,0,0,2.293-1.183,5.218,5.218,0,0,1,2.711-1.246l.133,0c2.849,0,3.189,2.752,3.373,4.241.037.3.07.563.112.751l.051.227a3.465,3.465,0,0,1,3.354-1.634,3,3,0,0,1,1.931,1.556c.849,1.669-.082,3.753-1.387,4.867A4.917,4.917,0,0,1,440.456,367.732Z" transform="translate(-426.164 -349.179)" fill="#1c3e58"/>
      </g>
    </g>
  </g>
</svg>
